<?xml version="1.0" encoding="UTF-8" standalone="no"?>
<svg width="294px" height="294px" viewBox="0 0 294 294" version="1.1" xmlns="http://www.w3.org/2000/svg" xmlns:xlink="http://www.w3.org/1999/xlink" xmlns:sketch="http://www.bohemiancoding.com/sketch/ns">
    <!-- Generator: Sketch 3.3.3 (12072) - http://www.bohemiancoding.com/sketch -->
    <title>Rectangle 66 + path13042 + path13044 + g13046 + CometLink</title>
    <desc>Created with Sketch.</desc>
    <defs>
        <radialGradient cx="50%" cy="46.9312876%" fx="50%" fy="46.9312876%" r="132.31312%" id="radialGradient-1">
            <stop stop-color="#00FF85" offset="0%"></stop>
            <stop stop-color="#5C3815" offset="100%"></stop>
        </radialGradient>
        <filter x="-50%" y="-50%" width="200%" height="200%" filterUnits="objectBoundingBox" id="filter-2">
            <feOffset dx="-1" dy="-1" in="SourceAlpha" result="shadowOffsetInner1"></feOffset>
            <feGaussianBlur stdDeviation="1.5" in="shadowOffsetInner1" result="shadowBlurInner1"></feGaussianBlur>
            <feComposite in="shadowBlurInner1" in2="SourceAlpha" operator="arithmetic" k2="-1" k3="1" result="shadowInnerInner1"></feComposite>
            <feColorMatrix values="0 0 0 0 0   0 0 0 0 0   0 0 0 0 0  0 0 0 0.35 0" in="shadowInnerInner1" type="matrix" result="shadowMatrixInner1"></feColorMatrix>
            <feMerge>
                <feMergeNode in="SourceGraphic"></feMergeNode>
                <feMergeNode in="shadowMatrixInner1"></feMergeNode>
            </feMerge>
        </filter>
        <filter x="-50%" y="-50%" width="200%" height="200%" filterUnits="objectBoundingBox" id="filter-3">
            <feOffset dx="-1" dy="-1" in="SourceAlpha" result="shadowOffsetInner1"></feOffset>
            <feGaussianBlur stdDeviation="1.5" in="shadowOffsetInner1" result="shadowBlurInner1"></feGaussianBlur>
            <feComposite in="shadowBlurInner1" in2="SourceAlpha" operator="arithmetic" k2="-1" k3="1" result="shadowInnerInner1"></feComposite>
            <feColorMatrix values="0 0 0 0 0   0 0 0 0 0   0 0 0 0 0  0 0 0 0.35 0" in="shadowInnerInner1" type="matrix" result="shadowMatrixInner1"></feColorMatrix>
            <feMerge>
                <feMergeNode in="SourceGraphic"></feMergeNode>
                <feMergeNode in="shadowMatrixInner1"></feMergeNode>
            </feMerge>
        </filter>
    </defs>
    <g id="Page-1" stroke="none" stroke-width="1" fill="none" fill-rule="evenodd" sketch:type="MSPage">
        <g id="Rectangle-66-+-path13042-+-path13044-+-g13046-+-CometLink" sketch:type="MSLayerGroup">
            <rect id="Rectangle-66" fill="url(#radialGradient-1)" sketch:type="MSShapeGroup" x="0" y="0" width="294" height="294"></rect>
            <g id="path13042-+-path13044-+-g13046-+-CometLink" transform="translate(87.000000, 190.000000)" font-weight="bold" font-family="DIN Condensed" line-spacing="42" fill="white" sketch:type="MSTextLayer">
                <text id="SHARE-EVERYTHING" filter="url(#filter-2)" font-size="18">
                    <tspan x="6" y="60.5" fill="#28AA56">SHARE EVERYTHING</tspan>
                </text>
                <text id="ROCKED" filter="url(#filter-3)" font-size="48">
                    <tspan x="0" y="34.5" fill="#1C2224">ROCKED</tspan>
                </text>
            </g>
            <g id="path13042-+-path13044-+-g13046" transform="translate(93.500000, 70.000000)" sketch:type="MSShapeGroup">
                <g id="g13046" transform="translate(0.891574, 0.324201)">
                    <g id="g13048" transform="translate(0.482784, 0.322466)">
                        <path d="M38.2102193,35.6401819 L17.697959,14.8663581 L0.453579782,39.7896917 L12.9057597,76.3821888 L25.7938942,82.2356863 L40.6137945,85.637802 L38.2102193,35.6401819 L38.2102193,35.6401819 Z" id="path13050" fill="#93A7AC"></path>
                        <path d="M17.6088103,14.897516 L34.0373411,2.11262102 L59.357496,4.87920889 L75.4128065,23.5649892 L64.7840606,31.5979343 L36.4808636,36.7542856 L17.6088103,14.897516 L17.6088103,14.897516 Z" id="path13052" fill="#DBE2E3"></path>
                        <path d="M59.2553958,4.84137763 L93.7078343,23.846596 L75.3805093,23.7868613 L59.2553958,4.84137763 L59.2553958,4.84137763 Z" id="path13054" fill="#B7C4C8"></path>
                        <path d="M75.2823154,23.4896522 L93.1448997,32.4114575 L103.283095,51.8347729 L60.9817287,95.4291681 L35.9404137,84.2515783 L36.4721905,36.717617 L75.2823154,23.4896522 L75.2823154,23.4896522 Z" id="path13056" fill="#53676C"></path>
                        <path d="M60.9853096,95.3696891 L94.3392001,79.3799496 L103.283095,51.8347729 L60.9853096,95.3696891 L60.9853096,95.3696891 Z" id="path13058" fill="#1C2224"></path>
                        <path d="M93.1645478,32.5960563 L98.9505442,30.1081688 L59.2076358,5.07478276 L75.0590017,23.2737094 L93.1645478,32.5960563 L93.1645478,32.5960563 Z" id="path13060"></path>
                        <path d="M93.1570606,32.4709365 L93.74727,23.8308543 L103.259703,51.8364703 L93.1570606,32.4709365 L93.1570606,32.4709365 Z" id="path13062" fill="#1C2224"></path>
                        <path d="M25.7191618,82.214178 L36.0669985,75.13971 L60.9079496,95.3971266 L25.7191618,82.214178 L25.7191618,82.214178 Z" id="path13064" fill="#374548"></path>
                        <path d="M75.2775952,23.4794445 L93.1991935,32.4934911 L93.7642673,23.8504326 L75.2775952,23.4794445 L75.2775952,23.4794445 Z" id="path13066" fill="#93ACA7"></path>
                    </g>
                    <g id="path13068-+-path13070-+-path13072" transform="translate(53.000000, 43.000000)">
                        <path d="M7.11310498,3.65472601 L7.11310498,14.9901514 C4.5633202,15.4667276 0.0844204088,16.339381 0.0647955903,16.3620518 C-0.018214602,16.4579204 14.2916729,28.7049233 14.4520663,28.6755791 C14.6124829,28.6462349 30.0067115,10.906329 29.9292818,10.8397813 C29.9108661,10.8239699 25.3804628,11.6926239 22.8083094,12.1531793 L22.8083094,0.599764914 L7.11310498,3.65472601 L7.11310498,3.65472601 Z" id="path13068" fill="#B7C4C8"></path>
                        <path d="M30.0746078,10.8397348 C30.0603309,10.8274809 26.9760954,11.40825 24.552221,11.8570166 C23.2560529,13.4634382 14.7802705,23.1756539 11.9088619,26.3896133 C12.7248265,27.0685529 14.5677458,28.6475835 14.5973923,28.6421658 C14.7578089,28.6128215 30.1520374,10.9062825 30.0746078,10.8397348 L30.0746078,10.8397348 Z" id="path13070" fill="#93A7AC"></path>
                        <path d="M19.3931492,1.29107473 L19.4658122,12.3721913 L22.8446525,12.1542024 L22.8083094,0.528101773 L19.3931492,1.29107473 L19.3931492,1.29107473 Z" id="path13072" fill="#93A7AC"></path>
                    </g>
                </g>
            </g>
        </g>
    </g>
</svg>