<?xml version="1.0" encoding="UTF-8" standalone="no"?>
<svg width="294px" height="294px" viewBox="0 0 294 294" version="1.1" xmlns="http://www.w3.org/2000/svg" xmlns:xlink="http://www.w3.org/1999/xlink" xmlns:sketch="http://www.bohemiancoding.com/sketch/ns">
    <!-- Generator: Sketch 3.3.3 (12072) - http://www.bohemiancoding.com/sketch -->
    <title>Rectangle 63 + Rectangle 63 + Rectangle 64 + Rectangle 64 Copy + Rectangle 63 + Rectangle 64 + Rectangle 64 Copy 2</title>
    <desc>Created with Sketch.</desc>
    <defs>
        <linearGradient x1="50%" y1="0%" x2="50%" y2="100%" id="linearGradient-1">
            <stop stop-color="#F5515F" offset="0%"></stop>
            <stop stop-color="#9F031B" offset="100%"></stop>
        </linearGradient>
    </defs>
    <g id="Page-1" stroke="none" stroke-width="1" fill="none" fill-rule="evenodd" sketch:type="MSPage">
        <g id="iPhone-5/5S/5C" sketch:type="MSArtboardGroup">
            <g id="Rectangle-63-+-Rectangle-63-+-Rectangle-64-+-Rectangle-64-Copy-+-Rectangle-63-+-Rectangle-64-+-Rectangle-64-Copy-2" sketch:type="MSLayerGroup" transform="translate(-93.000000, -279.000000)">
                <rect id="Rectangle-63" fill="url(#linearGradient-1)" sketch:type="MSShapeGroup" x="0" y="0" width="480" height="852"></rect>
                <g id="Rectangle-63-+-Rectangle-64-+-Rectangle-64-Copy-+-Rectangle-63-+-Rectangle-64-+-Rectangle-64-Copy-2" transform="translate(133.000000, 405.000000)" fill="#FFFFFF" sketch:type="MSShapeGroup">
                    <g id="Rectangle-63-+-Rectangle-64-+-Rectangle-64-Copy" transform="translate(0.349585, 0.000000)">
                        <path d="M25.6868149,21.3969091 L30.7268149,21.3969091 L30.7268149,18.4737091 C30.7268149,17.4993042 30.5000172,16.7685115 30.0464149,16.2813091 C29.5928127,15.7941067 28.9796188,15.5505091 28.2068149,15.5505091 C27.4340111,15.5505091 26.8208172,15.7941067 26.3672149,16.2813091 C25.9136127,16.7685115 25.6868149,17.4993042 25.6868149,18.4737091 L25.6868149,21.3969091 L25.6868149,21.3969091 Z M44.7884149,39.2385091 C44.8220151,39.8433121 45.0656127,40.4145064 45.5192149,40.9521091 C45.9728172,41.4897118 46.6364106,41.7585091 47.5100149,41.7585091 C48.3500191,41.7585091 48.9548131,41.4981117 49.3244149,40.9773091 C49.6940168,40.4565065 49.8788149,39.7929131 49.8788149,38.9865091 L49.8788149,33.9465091 L49.7780149,33.9465091 C49.2068121,34.7865133 48.5264189,35.4333068 47.7368149,35.8869091 C46.947211,36.3405114 46.0316201,36.5673091 44.9900149,36.5673091 C42.8732044,36.5673091 41.3780193,35.7609172 40.5044149,34.1481091 C40.2020134,33.5769062 39.9836156,32.8713133 39.8492149,32.0313091 C39.7148143,31.1913049 39.6476149,30.0657161 39.6476149,28.6545091 L39.6476149,18.9273091 C39.6476149,17.0792999 39.6980144,15.7185135 39.7988149,14.8449091 C39.8996154,13.9713047 40.1180133,13.2657118 40.4540149,12.7281091 C40.8908171,12.0561057 41.4536115,11.5017113 42.1424149,11.0649091 C42.8312184,10.6281069 43.7972087,10.4097091 45.0404149,10.4097091 C45.6788181,10.4097091 46.2248127,10.4769084 46.6784149,10.6113091 C47.1320172,10.7457098 47.5436131,10.9305079 47.9132149,11.1657091 C48.2828168,11.4009103 48.6188134,11.6781075 48.9212149,11.9973091 C49.2236164,12.3165107 49.5428133,12.6609072 49.8788149,13.0305091 L49.8788149,10.7121091 L55.0196149,10.7121091 L55.0196149,39.3897091 C55.0196149,40.2633135 54.8768164,41.1453046 54.5912149,42.0357091 C54.3056135,42.9261135 53.8436181,43.7325055 53.2052149,44.4549091 C52.5668117,45.1773127 51.7604198,45.7653068 50.7860149,46.2189091 C49.8116101,46.6725114 48.6524217,46.8993091 47.3084149,46.8993091 C46.5356111,46.8993091 45.7292191,46.7733104 44.8892149,46.5213091 C44.0492107,46.2693078 43.2680185,45.849312 42.5456149,45.2613091 C41.8232113,44.6733062 41.2016175,43.892114 40.6808149,42.9177091 C40.1600123,41.9433042 39.8156158,40.7169165 39.6476149,39.2385091 L44.7884149,39.2385091 L44.7884149,39.2385091 Z M44.7884149,28.4025091 C44.7884149,29.2089131 44.9648132,29.9145061 45.3176149,30.5193091 C45.6704167,31.1241121 46.3340101,31.4265091 47.3084149,31.4265091 C48.0476186,31.4265091 48.6608125,31.1661117 49.1480149,30.6453091 C49.6352174,30.1245065 49.8788149,29.4609131 49.8788149,28.6545091 L49.8788149,18.7257091 C49.8788149,17.7849044 49.6436173,17.020512 49.1732149,16.4325091 C48.7028126,15.8445062 48.0812188,15.5505091 47.3084149,15.5505091 C46.4348106,15.5505091 45.796417,15.8697059 45.3932149,16.5081091 C44.9900129,17.1465123 44.7884149,17.9865039 44.7884149,19.0281091 L44.7884149,28.4025091 L44.7884149,28.4025091 Z M59.2532149,0.380109091 L64.3940149,0.380109091 L64.3940149,21.8505091 L64.4948149,21.8505091 L70.6940149,10.7121091 L75.8348149,10.7121091 L69.7364149,21.0945091 L77.0948149,36.2649091 L71.5004149,36.2649091 L66.8636149,25.2273091 L64.3940149,29.1081091 L64.3940149,36.2649091 L59.2532149,36.2649091 L59.2532149,0.380109091 L59.2532149,0.380109091 Z M88.5860149,33.6441091 L88.4852149,33.6441091 C87.8132116,34.5849138 87.1328184,35.3073066 86.4440149,35.8113091 C85.7552115,36.3153116 84.7892212,36.5673091 83.5460149,36.5673091 C82.9412119,36.5673091 82.3196181,36.47491 81.6812149,36.2901091 C81.0428117,36.1053082 80.4464177,35.7693115 79.8920149,35.2821091 C79.3376122,34.7949067 78.8840167,34.1061135 78.5312149,33.2157091 C78.1784132,32.3253046 78.0020149,31.1745161 78.0020149,29.7633091 C78.0020149,28.3185019 78.1196138,27.0501146 78.3548149,25.9581091 C78.5900161,24.8661036 79.0184118,23.9589127 79.6400149,23.2365091 C80.261618,22.5141055 81.0932097,21.9765109 82.1348149,21.6237091 C83.1764201,21.2709073 84.5036069,21.0945091 86.1164149,21.0945091 C86.4860168,21.0945091 86.8556131,21.1113089 87.2252149,21.1449091 C87.5948168,21.1785093 88.0484122,21.2121089 88.5860149,21.2457091 L88.5860149,18.5745091 C88.5860149,17.7009047 88.4012168,16.9785119 88.0316149,16.4073091 C87.6620131,15.8361062 86.9900198,15.5505091 86.0156149,15.5505091 C85.3436116,15.5505091 84.7304177,15.7689069 84.1760149,16.2057091 C83.6216122,16.6425113 83.2604158,17.2809049 83.0924149,18.1209091 L78.1028149,18.1209091 C78.2708158,15.8024975 79.043608,13.954516 80.4212149,12.5769091 C81.0932183,11.9049057 81.8996102,11.375711 82.8404149,10.9893091 C83.7812196,10.6029072 84.8396091,10.4097091 86.0156149,10.4097091 C87.0908203,10.4097091 88.0988102,10.5777074 89.0396149,10.9137091 C89.9804196,11.2497108 90.7952115,11.7537057 91.4840149,12.4257091 C92.1728184,13.0977125 92.7188129,13.9377041 93.1220149,14.9457091 C93.525217,15.9537141 93.7268149,17.1297024 93.7268149,18.4737091 L93.7268149,36.2649091 L88.5860149,36.2649091 L88.5860149,33.6441091 L88.5860149,33.6441091 Z M88.5860149,25.2777091 C88.0148121,25.1769086 87.5444168,25.1265091 87.1748149,25.1265091 C86.0660094,25.1265091 85.1168189,25.3869065 84.3272149,25.9077091 C83.537611,26.4285117 83.1428149,27.3777022 83.1428149,28.7553091 C83.1428149,29.729714 83.3780126,30.5193061 83.8484149,31.1241091 C84.3188173,31.7289121 84.9740107,32.0313091 85.8140149,32.0313091 C86.6876193,32.0313091 87.3680125,31.7457119 87.8552149,31.1745091 C88.3424174,30.6033062 88.5860149,29.7969143 88.5860149,28.7553091 L88.5860149,25.2777091 L88.5860149,25.2777091 Z M97.5068149,10.7121091 L102.647615,10.7121091 L102.647615,13.1817091 L102.748415,13.1817091 C103.286018,12.3753051 103.932811,11.7117117 104.688815,11.1909091 C105.444819,10.6701065 106.410809,10.4097091 107.586815,10.4097091 C108.225218,10.4097091 108.863612,10.518908 109.502015,10.7373091 C110.140418,10.9557102 110.711612,11.3169066 111.215615,11.8209091 C111.719617,12.3249116 112.122813,12.9717051 112.425215,13.7613091 C112.727616,14.550913 112.878815,15.5169034 112.878815,16.6593091 L112.878815,36.2649091 L107.738015,36.2649091 L107.738015,18.5745091 C107.738015,17.6337044 107.519617,16.8945118 107.082815,16.3569091 C106.646013,15.8193064 106.024419,15.5505091 105.218015,15.5505091 C104.24361,15.5505091 103.571617,15.8529061 103.202015,16.4577091 C102.832413,17.0625121 102.647615,17.9361034 102.647615,19.0785091 L102.647615,36.2649091 L97.5068149,36.2649091 L97.5068149,10.7121091 L97.5068149,10.7121091 Z M122.253215,27.9489091 C122.253215,28.9905143 122.454813,29.8305059 122.858015,30.4689091 C123.261217,31.1073123 123.899611,31.4265091 124.773215,31.4265091 C125.546019,31.4265091 126.167613,31.132512 126.638015,30.5445091 C127.108417,29.9565062 127.343615,29.1921138 127.343615,28.2513091 L127.343615,18.3225091 C127.343615,17.5161051 127.100017,16.8525117 126.612815,16.3317091 C126.125613,15.8109065 125.512419,15.5505091 124.773215,15.5505091 C123.79881,15.5505091 123.135217,15.8529061 122.782415,16.4577091 C122.429613,17.0625121 122.253215,17.7681051 122.253215,18.5745091 L122.253215,27.9489091 L122.253215,27.9489091 Z M127.343615,33.9465091 C127.007613,34.3161109 126.688416,34.6605075 126.386015,34.9797091 C126.083613,35.2989107 125.747617,35.5761079 125.378015,35.8113091 C125.008413,36.0465103 124.588417,36.2313084 124.118015,36.3657091 C123.647613,36.5001098 123.093218,36.5673091 122.454815,36.5673091 C120.338004,36.5673091 118.842819,35.7609172 117.969215,34.1481091 C117.666813,33.5769062 117.448416,32.8713133 117.314015,32.0313091 C117.179614,31.1913049 117.112415,30.0657161 117.112415,28.6545091 L117.112415,18.9273091 C117.112415,17.0792999 117.162814,15.7185135 117.263615,14.8449091 C117.364415,13.9713047 117.582813,13.2657118 117.918815,12.7281091 C118.355617,12.0561057 118.918411,11.5017113 119.607215,11.0649091 C120.296018,10.6281069 121.262009,10.4097091 122.505215,10.4097091 C123.51322,10.4097091 124.412011,10.6365068 125.201615,11.0901091 C125.991219,11.5437114 126.671612,12.1905049 127.242815,13.0305091 L127.343615,13.0305091 L127.343615,0.380109091 L132.484415,0.380109091 L132.484415,36.2649091 L127.343615,36.2649091 L127.343615,33.9465091 L127.343615,33.9465091 Z M146.445215,33.6441091 L146.344415,33.6441091 C145.672412,34.5849138 144.992018,35.3073066 144.303215,35.8113091 C143.614411,36.3153116 142.648421,36.5673091 141.405215,36.5673091 C140.800412,36.5673091 140.178818,36.47491 139.540415,36.2901091 C138.902012,36.1053082 138.305618,35.7693115 137.751215,35.2821091 C137.196812,34.7949067 136.743217,34.1061135 136.390415,33.2157091 C136.037613,32.3253046 135.861215,31.1745161 135.861215,29.7633091 C135.861215,28.3185019 135.978814,27.0501146 136.214015,25.9581091 C136.449216,24.8661036 136.877612,23.9589127 137.499215,23.2365091 C138.120818,22.5141055 138.95241,21.9765109 139.994015,21.6237091 C141.03562,21.2709073 142.362807,21.0945091 143.975615,21.0945091 C144.345217,21.0945091 144.714813,21.1113089 145.084415,21.1449091 C145.454017,21.1785093 145.907612,21.2121089 146.445215,21.2457091 L146.445215,18.5745091 C146.445215,17.7009047 146.260417,16.9785119 145.890815,16.4073091 C145.521213,15.8361062 144.84922,15.5505091 143.874815,15.5505091 C143.202812,15.5505091 142.589618,15.7689069 142.035215,16.2057091 C141.480812,16.6425113 141.119616,17.2809049 140.951615,18.1209091 L135.962015,18.1209091 C136.130016,15.8024975 136.902808,13.954516 138.280415,12.5769091 C138.952418,11.9049057 139.75881,11.375711 140.699615,10.9893091 C141.64042,10.6029072 142.698809,10.4097091 143.874815,10.4097091 C144.95002,10.4097091 145.95801,10.5777074 146.898815,10.9137091 C147.83962,11.2497108 148.654411,11.7537057 149.343215,12.4257091 C150.032018,13.0977125 150.578013,13.9377041 150.981215,14.9457091 C151.384417,15.9537141 151.586015,17.1297024 151.586015,18.4737091 L151.586015,36.2649091 L146.445215,36.2649091 L146.445215,33.6441091 L146.445215,33.6441091 Z M146.445215,25.2777091 C145.874012,25.1769086 145.403617,25.1265091 145.034015,25.1265091 C143.925209,25.1265091 142.976019,25.3869065 142.186415,25.9077091 C141.396811,26.4285117 141.002015,27.3777022 141.002015,28.7553091 C141.002015,29.729714 141.237213,30.5193061 141.707615,31.1241091 C142.178017,31.7289121 142.833211,32.0313091 143.673215,32.0313091 C144.546819,32.0313091 145.227213,31.7457119 145.714415,31.1745091 C146.201617,30.6033062 146.445215,29.7969143 146.445215,28.7553091 L146.445215,25.2777091 L146.445215,25.2777091 Z M155.366015,10.7121091 L160.506815,10.7121091 L160.506815,13.1817091 L160.607615,13.1817091 C161.145218,12.3753051 161.792011,11.7117117 162.548015,11.1909091 C163.304019,10.6701065 164.270009,10.4097091 165.446015,10.4097091 C166.084418,10.4097091 166.722812,10.518908 167.361215,10.7373091 C167.999618,10.9557102 168.570812,11.3169066 169.074815,11.8209091 C169.578817,12.3249116 169.982013,12.9717051 170.284415,13.7613091 C170.586816,14.550913 170.738015,15.5169034 170.738015,16.6593091 L170.738015,36.2649091 L165.597215,36.2649091 L165.597215,18.5745091 C165.597215,17.6337044 165.378817,16.8945118 164.942015,16.3569091 C164.505213,15.8193064 163.883619,15.5505091 163.077215,15.5505091 C162.10281,15.5505091 161.430817,15.8529061 161.061215,16.4577091 C160.691613,17.0625121 160.506815,17.9361034 160.506815,19.0785091 L160.506815,36.2649091 L155.366015,36.2649091 L155.366015,10.7121091 L155.366015,10.7121091 Z M184.295615,17.8689091 C184.262015,16.9953047 183.984818,16.3401113 183.464015,15.9033091 C182.943212,15.4665069 182.346818,15.2481091 181.674815,15.2481091 C180.868411,15.2481091 180.246817,15.5085065 179.810015,16.0293091 C179.373213,16.5501117 179.154815,17.1465057 179.154815,17.8185091 C179.154815,18.2889114 179.272414,18.7509068 179.507615,19.2045091 C179.742816,19.6581114 180.34761,20.0697072 181.322015,20.4393091 L184.346015,21.6489091 C186.261225,22.3881128 187.580011,23.3961027 188.302415,24.6729091 C189.024819,25.9497155 189.386015,27.3441015 189.386015,28.8561091 C189.386015,29.9313145 189.192817,30.9309045 188.806415,31.8549091 C188.420013,32.7789137 187.890818,33.5937056 187.218815,34.2993091 C186.546812,35.0049126 185.74042,35.5593071 184.799615,35.9625091 C183.85881,36.3657111 182.83402,36.5673091 181.725215,36.5673091 C180.71721,36.5673091 179.759619,36.3993108 178.852415,36.0633091 C177.94521,35.7273074 177.147218,35.2401123 176.458415,34.6017091 C175.769611,33.9633059 175.206817,33.1653139 174.770015,32.2077091 C174.333213,31.2501043 174.098015,30.1329155 174.064415,28.8561091 L178.902815,28.8561091 C179.003615,29.5617126 179.247213,30.2169061 179.633615,30.8217091 C180.020017,31.4265121 180.70041,31.7289091 181.674815,31.7289091 C182.414019,31.7289091 183.077612,31.4853115 183.665615,30.9981091 C184.253618,30.5109067 184.547615,29.8305135 184.547615,28.9569091 C184.547615,28.2513056 184.362817,27.6465116 183.993215,27.1425091 C183.623613,26.6385066 182.95162,26.2017109 181.977215,25.8321091 L179.507615,24.9249091 C177.894807,24.3201061 176.62642,23.4213151 175.702415,22.2285091 C174.77841,21.0357031 174.316415,19.5825177 174.316415,17.8689091 C174.316415,16.7937037 174.518013,15.7941137 174.921215,14.8701091 C175.324417,13.9461045 175.870411,13.1565124 176.559215,12.5013091 C177.248018,11.8461058 178.04601,11.3337109 178.953215,10.9641091 C179.860419,10.5945072 180.83481,10.4097091 181.876415,10.4097091 C182.91802,10.4097091 183.88401,10.6029072 184.774415,10.9893091 C185.664819,11.375711 186.429212,11.8965058 187.067615,12.5517091 C187.706018,13.2069124 188.210013,13.9965045 188.579615,14.9205091 C188.949217,15.8445137 189.134015,16.8273039 189.134015,17.8689091 L184.295615,17.8689091 L184.295615,17.8689091 Z M192.712415,0.380109091 L197.853215,0.380109091 L197.853215,21.8505091 L197.954015,21.8505091 L204.153215,10.7121091 L209.294015,10.7121091 L203.195615,21.0945091 L210.554015,36.2649091 L204.959615,36.2649091 L200.322815,25.2273091 L197.853215,29.1081091 L197.853215,36.2649091 L192.712415,36.2649091 L192.712415,0.380109091 L192.712415,0.380109091 Z M20.5460149,25.2272727 L20.5460149,27.6969091 C20.5460149,28.7385143 20.6132143,29.6961047 20.7476149,30.5697091 C20.8820156,31.4433135 21.1340131,32.2161057 21.5036149,32.8881091 C22.108418,33.9969146 22.9820092,34.8873057 24.1244149,35.5593091 C25.2668206,36.2313125 26.627607,36.5673091 28.2068149,36.5673091 C29.3828208,36.5673091 30.4412102,36.3657111 31.3820149,35.9625091 C32.3228196,35.5593071 33.1292116,35.0049126 33.8012149,34.2993091 C34.4732183,33.6273057 34.9856132,32.8209138 35.3384149,31.8801091 C35.6912167,30.9393044 35.8676149,29.9313145 35.8676149,28.8561091 L30.7268149,28.8561091 C30.6596146,29.4273119 30.4664165,29.9985062 30.1472149,30.5697091 C29.8280133,31.1409119 29.1812198,31.4265091 28.2068149,31.4265091 C27.4340111,31.4265091 26.8208172,31.2081113 26.3672149,30.7713091 C25.9136127,30.3345069 25.6868149,29.7129131 25.6868149,28.9065091 L25.6868149,25.4289091 L35.8676149,25.4289091 L35.8676149,18.3729091 C35.8676149,17.2641035 35.6912167,16.222514 35.3384149,15.2481091 C34.9856132,14.2737042 34.4816182,13.4253127 33.8264149,12.7029091 C33.1712117,11.9805055 32.3648197,11.4177111 31.4072149,11.0145091 C30.4496101,10.6113071 29.3828208,10.4097091 28.2068149,10.4097091 C26.627607,10.4097091 25.2668206,10.7457057 24.1244149,11.4177091 C22.9820092,12.0897125 22.108418,12.9801035 21.5036149,14.0889091 C21.1340131,14.7609125 20.8820156,15.5337047 20.7476149,16.4073091 C20.6132143,17.2809135 20.5460149,18.2385039 20.5460149,19.2801091 L20.5460149,21 L16.4636149,21 L16.4636149,0.380109091 L11.3228149,0.380109091 L11.3228149,21 L5.12033195,21 L5.12033195,25.2272727 L11.3228149,25.2272727 L11.3228149,27.0921091 C11.3228149,27.9993136 11.1968162,28.7301063 10.9448149,29.2845091 C10.6928137,29.8389119 10.3904167,30.2757075 10.0376149,30.5949091 C9.68481317,30.9141107 9.30681695,31.1325085 8.90361494,31.2501091 C8.50041292,31.3677097 8.14761645,31.4265091 7.84521494,31.4265091 C7.30761225,31.4265091 6.79521737,31.3005104 6.30801494,31.0485091 C5.8208125,30.7965078 5.39241679,30.4857109 5.02281494,30.1161091 L0.990814938,33.3417091 C1.62921813,34.0473126 2.49440948,34.7613055 3.58641494,35.4837091 C4.6784204,36.2061127 6.04760671,36.5673091 7.69401494,36.5673091 C9.07162183,36.5673091 10.2980096,36.3321114 11.3732149,35.8617091 C12.4484203,35.3913067 13.3640112,34.7529131 14.1200149,33.9465091 C14.8760187,33.1401051 15.4556129,32.2077144 15.8588149,31.1493091 C16.262017,30.0909038 16.4636149,28.973715 16.4636149,27.7977091 L16.4636149,25.2272727 L20.5460149,25.2272727 Z" id="Jegkandansk"></path>
                    </g>
                </g>
            </g>
        </g>
    </g>
</svg>