<?xml version="1.0" encoding="UTF-8" standalone="no"?>
<svg width="301px" height="300px" viewBox="0 0 301 300" version="1.1" xmlns="http://www.w3.org/2000/svg" xmlns:xlink="http://www.w3.org/1999/xlink" xmlns:sketch="http://www.bohemiancoding.com/sketch/ns">
    <!-- Generator: Sketch 3.3.3 (12072) - http://www.bohemiancoding.com/sketch -->
    <title>Tablet Portrait</title>
    <desc>Created with Sketch.</desc>
    <defs>
        <linearGradient x1="50%" y1="0%" x2="50%" y2="100.000114%" id="linearGradient-1">
            <stop stop-color="#29ABE2" offset="0%"></stop>
            <stop stop-color="#28A9E1" offset="47.57%"></stop>
            <stop stop-color="#23A2DC" offset="66.39%"></stop>
            <stop stop-color="#1A96D4" offset="80.12%"></stop>
            <stop stop-color="#0E85C9" offset="91.3%"></stop>
            <stop stop-color="#0071BC" offset="100%"></stop>
        </linearGradient>
    </defs>
    <g id="Page-1" stroke="none" stroke-width="1" fill="none" fill-rule="evenodd" sketch:type="MSPage">
        <g id="Tablet-Portrait" sketch:type="MSArtboardGroup">
            <g id="sketch" sketch:type="MSLayerGroup" transform="translate(1.000000, 0.000000)">
                <g id="Symbole.__202" fill="#201D33" sketch:type="MSShapeGroup">
                    <g id="shape2">
                        <path d="M69.9256085,12.0006349 C68.9797884,11.0548148 68.0079365,10.1653968 66.9926984,9.31068783 C65.2485714,7.8442328 63.4046561,6.53396825 61.4783069,5.39724868 C59.9033862,4.46878307 58.2764021,3.65746032 56.58,2.96328042 C53.842328,1.8352381 50.9484656,1.02825397 47.9157672,0.542328042 C47.3430688,0.451216931 46.7616931,0.368783069 46.1673016,0.303703704 C45.642328,0.238624339 45.1086772,0.190899471 44.5706878,0.147513228 C44.2930159,0.125820106 44.0153439,0.104126984 43.737672,0.0867724868 C43.6812698,0.0824338624 43.6292063,0.0824338624 43.5728042,0.0780952381 C42.7311111,0.0303703704 41.8503704,0.00433862434 40.9609524,0.00433862434 C40.1496296,0.00433862434 39.3469841,0.026031746 38.54,0.0694179894 C38.3360847,0.0780952381 38.1321693,0.0911111111 37.9065608,0.104126984 C37.72,0.117142857 37.5334392,0.13015873 37.3512169,0.147513228 C36.8175661,0.190899471 36.2839153,0.242962963 35.7546032,0.303703704 C32.0971429,0.72021164 28.6262434,1.60962963 25.3419048,2.96328042 C23.6628571,3.64878307 22.0315344,4.46444444 20.4479365,5.39724868 C18.5346032,6.52529101 16.6950265,7.83121693 14.9292063,9.31502646 C13.9616931,10.1263492 13.0115344,10.9940741 12.0874074,11.9138624 C12.057037,11.9442328 12.0310053,11.9702646 12.0006349,12.0006349 C11.8531217,12.1481481 11.7056085,12.3 11.5711111,12.438836 C10.4951323,13.5408466 9.51026455,14.6602116 8.59481481,15.8099471 C7.01555556,17.7926984 5.65322751,19.8665608 4.51650794,22.0228571 C3.79195767,23.3938624 3.15417989,24.8039153 2.61185185,26.2226455 C1.34931217,29.5330159 0.551005291,32.9952381 0.208253968,36.6353439 C0.0723104056,38.0497354 0.00433862434,39.4916049 0.00433862434,40.9609524 C0.00433862434,43.0565079 0.143174603,45.1 0.412169312,47.0480423 C0.91978836,50.7488889 1.89597884,54.2111111 3.33640212,57.4607407 C3.70518519,58.3067725 4.09566138,59.109418 4.51650794,59.9033862 C6.01333333,62.7321693 7.87460317,65.3960847 10.0699471,67.8734392 C10.7033862,68.5893122 11.3368254,69.2617989 12.0006349,69.9256085 C12.9594709,70.8844444 13.9443386,71.7868783 14.9292063,72.6155556 C17.7319577,74.9584127 20.6865608,76.8500529 23.7930159,78.2861376 C24.3049735,78.5247619 24.8212698,78.7503704 25.3419048,78.962963 C28.6392593,80.3166138 32.1058201,81.2016931 35.7546032,81.6225397 C36.288254,81.6832804 36.8175661,81.7353439 37.3512169,81.7787302 C37.5421164,81.791746 37.7243386,81.8047619 37.9065608,81.8177778 C38.1321693,81.8351323 38.3360847,81.8481481 38.54,81.8568254 L38.574709,81.8568254 C39.3122751,81.895873 40.0151323,81.9175661 40.7006349,81.9175661 L40.9609524,81.9175661 C41.854709,81.9175661 42.7397884,81.8915344 43.5728042,81.8481481 C43.6292063,81.8438095 43.6812698,81.8394709 43.737672,81.8394709 C43.8851852,81.826455 44.0326984,81.8177778 44.175873,81.8091005 C44.3190476,81.8004233 44.4622222,81.7874074 44.5706878,81.7787302 C45.1260317,81.7353439 45.6726984,81.6789418 46.1673016,81.6225397 C47.2649735,81.492381 48.2802116,81.3318519 49.269418,81.1409524 C49.9592593,81.006455 50.6404233,80.8546032 51.2998942,80.6940741 C53.1134392,80.2385185 54.8749206,79.6614815 56.58,78.9673016 C57.1136508,78.7460317 57.642963,78.5160847 58.1332275,78.2861376 C61.291746,76.8153439 64.237672,74.9237037 66.9926984,72.6198942 C67.8430688,71.9040212 68.671746,71.1534392 69.491746,70.3594709 C69.630582,70.2206349 69.7780952,70.0731217 69.9256085,69.9256085 C69.9559788,69.8952381 69.9820106,69.8692063 70.012381,69.838836 C70.6501587,69.1967196 71.2662434,68.5415873 71.8562963,67.8734392 C74.0733333,65.3700529 75.9215873,62.7191534 77.4053968,59.9077249 C77.830582,59.1137566 78.2253968,58.2937566 78.5898413,57.4607407 C78.8197884,56.9487831 79.0367196,56.4194709 79.2406349,55.8858201 C80.325291,53.0830688 81.0802116,50.1414815 81.5140741,47.0480423 C81.7093122,45.5946032 81.8394709,44.0977778 81.8915344,42.5662434 C81.9088889,42.0412698 81.9175661,41.5032804 81.9175661,40.9609524 L81.9175661,40.7874074 L81.9175661,40.7006349 C81.9088889,39.3296296 81.8438095,37.9803175 81.7179894,36.6353439 C81.5184127,34.5701587 81.1713228,32.5353439 80.6767196,30.548254 C80.5812698,30.1707937 80.4728042,29.7673016 80.36,29.3681481 C80.1430688,28.6088889 79.8957672,27.8409524 79.6267725,27.0816931 C79.5269841,26.8040212 79.4271958,26.5263492 79.3100529,26.2226455 C78.8284656,24.9557672 78.2601058,23.6845503 77.6179894,22.4263492 C77.5529101,22.3005291 77.4878307,22.174709 77.4053968,22.0185185 C77.149418,21.5325926 76.8543915,21.0032804 76.5506878,20.4826455 C75.613545,18.8860317 74.5462434,17.3328042 73.3314286,15.8099471 C72.3031746,14.517037 71.1621164,13.2371429 69.9256085,12.0006349 L69.9256085,12.0006349 Z" id="path1"></path>
                    </g>
                </g>
                <g id="Symbole.__203" transform="translate(40.000000, 32.000000)" fill-opacity="0.2" fill="#000000" sketch:type="MSShapeGroup">
                    <g id="shape4">
                        <path d="M36.6206499,27.5130435 C37.0418239,26.7173913 37.432914,25.8956522 37.7939203,25.0608696 C38.0216981,24.5478261 38.2365828,24.0173913 38.4385744,23.4826087 C39.5129979,20.673913 40.2607966,17.726087 40.690566,14.626087 C40.8226485,13.646087 40.9222117,12.6526087 40.9892558,11.6456522 L29.542348,0.0652173913 L0.0257861635,35.7782609 L12.089413,47.9826087 C13.4259958,47.5913043 14.7238994,47.1347826 15.9917191,46.6130435 C16.5203354,46.3913043 17.0446541,46.1608696 17.5302935,45.9304348 C20.6590147,44.4565217 23.5771488,42.5608696 26.3061845,40.2521739 C27.1485325,39.5347826 27.969392,38.7826087 28.7816562,37.9869565 C28.9191824,37.8478261 29.065304,37.7 29.2114256,37.5521739 C29.2415094,37.5217391 29.2672956,37.4956522 29.2973795,37.4652174 C29.9291405,36.8217391 30.539413,36.1652174 31.1238994,35.4956522 C33.320021,32.9869565 35.1508386,30.3304348 36.6206499,27.5130435 L36.6206499,27.5130435 Z" id="path2"></path>
                    </g>
                </g>
                <g id="inner" transform="translate(12.000000, 20.000000)" sketch:type="MSShapeGroup">
                    <g id="shape6">
                        <path d="M51.3806213,3.87411661 L43.1764793,0.0649293286 L15.8322485,0.0649293286 L7.62810651,3.87411661 L15.7580621,6.29814488 L43.2506657,6.29814488 L51.3806213,3.87411661 L51.3806213,3.87411661 Z" id="path3" fill="#F8EEAC"></path>
                        <path d="M51.3806213,3.87411661 L43.2506657,6.29814488 L47.8982249,17.8122792 L47.8240385,17.9421378 L58.9738166,12.7910777 L51.3806213,3.87411661 L51.3806213,3.87411661 Z" id="path4" fill="#D98A49"></path>
                        <path d="M47.8240385,17.9421378 L47.8982249,17.8122792 L11.2370562,17.8122792 L11.1846893,17.9421378 L29.3516272,48.7532686 L29.5043639,48.9437279 L29.6571006,48.7532686 L47.8240385,17.9421378 L47.8240385,17.9421378 Z" id="path5" fill="#E38739"></path>
                        <path d="M58.9738166,12.7910777 L47.8240385,17.9421378 L29.6571006,48.7532686 L58.9738166,12.7910777 L58.9738166,12.7910777 Z" id="path6" fill="#B84C35"></path>
                        <path d="M47.8982249,17.8122792 L43.2506657,6.29814488 L15.7580621,6.29814488 L11.2370562,17.8122792 L47.8982249,17.8122792 L47.8982249,17.8122792 Z M11.1846893,17.9421378 L11.110503,17.8122792 L11.2370562,17.8122792 L11.1846893,17.9421378 L11.1846893,17.9421378 Z" id="path7" fill="#E9CB65"></path>
                        <path d="M11.1846893,17.9421378 L11.110503,17.8122792 L11.2370562,17.8122792 L15.7580621,6.29814488 L7.62810651,3.87411661 L0.0349112426,12.7910777 L11.1846893,17.9421378 L11.1846893,17.9421378 Z" id="path11" fill="#FAE88C"></path>
                        <path d="M11.1846893,17.9421378 L0.0349112426,12.7910777 L29.3516272,48.7532686 L11.1846893,17.9421378 L11.1846893,17.9421378 Z" id="path12" fill="#C33F26"></path>
                    </g>
                </g>
                <g id="Calque.__202" transform="translate(10.000000, 14.000000)" fill="#FFFFFF" sketch:type="MSShapeGroup">
                    <g id="shape18">
                        <path d="M10.5224359,0.0403846154 L10.5224359,0.00897435897 L10.5179487,0.0269230769 L10.5179487,0.0403846154 L9.05512821,9.03269231 L0.0628205128,10.4955128 L9.05512821,11.9628205 L10.5179487,20.950641 L10.5179487,20.9685897 L10.5224359,20.9820513 L10.5224359,20.950641 L11.9852564,11.9628205 L20.9730769,10.4955128 L11.9852564,9.03269231 L10.5224359,0.0403846154 L10.5224359,0.0403846154 Z" id="path13"></path>
                    </g>
                </g>
            </g>
            <g id="adobe-photoshop" sketch:type="MSLayerGroup" transform="translate(110.000000, 0.000000)">
                <g id="BackgroundInner" fill="#333764" sketch:type="MSShapeGroup">
                    <g id="shape2">
                        <path d="M79.0485201,56.4648363 C79.6249471,55.0534319 80.1146934,53.6030623 80.522093,52.1093981 C81.4755814,48.6068638 81.9523256,44.8965153 81.9523256,40.9826822 C81.9523256,29.6799014 77.9520085,20.0324182 69.9513742,12.0402323 C61.95074,4.04804646 52.2901691,0.0519535375 40.9739958,0.0519535375 C29.6578224,0.0519535375 20.0015856,4.04804646 12.0009514,12.0402323 C4.00031712,20.0324182 0,29.6784583 0,40.9826822 C0,52.286906 4.00031712,61.9372756 12.0009514,69.9294615 C19.1217759,77.0470961 27.560148,80.9955649 37.3073996,81.7705385 C38.5079281,81.8701162 39.7301268,81.9177402 40.9739958,81.9177402 C41.6241015,81.9177402 42.2698732,81.9047518 42.8809725,81.8787751 C53.3953488,81.4458289 62.410148,77.4627244 69.9513742,69.9294615 C74.0167019,65.8684266 77.0505285,61.3787751 79.0485201,56.4648363 L79.0485201,56.4648363 Z" id="path1"></path>
                    </g>
                </g>
                <g id="LogoBg" transform="translate(17.000000, 21.000000)" fill-opacity="0.2" fill="#000000" sketch:type="MSShapeGroup">
                    <g id="shape4">
                        <path d="M45.73625,13.847482 L40.630625,13.4676259 L26.998125,0.0172661871 L5.919375,2.38920863 L0.0590625,37.4352518 L22.7565625,59.9158273 L22.75875,59.9179856 L23.24875,59.9179856 C23.905,59.9179856 24.556875,59.905036 25.17375,59.8791367 C35.7875,59.447482 44.8875,55.476259 52.5,47.9654676 C56.60375,43.9165468 59.66625,39.4402878 61.683125,34.5410072 C62.1777917,33.339741 62.6101875,32.1131223 62.9803125,30.8611511 L45.73625,13.847482 L45.73625,13.847482 Z" id="path2"></path>
                    </g>
                </g>
                <g id="Ico" transform="translate(18.000000, 18.000000)" fill="#FFFFFF" sketch:type="MSShapeGroup">
                    <g id="shape6">
                        <path d="M45.1093985,21.28 L45.1093985,17.535 C44.106391,17.233125 42.7661654,16.996875 41.1016917,16.8175 L37.2798872,16.555 L35.5894737,16.555 C33.5964286,16.576875 32.0054511,17.0275 30.8381579,17.906875 C30.2026316,18.414375 29.7184211,19.088125 29.4071429,19.936875 C29.0785714,20.776875 28.9142857,21.800625 28.9142857,22.999375 L28.9142857,25.143125 C28.9142857,27.335 29.4460526,28.993125 30.5095865,30.1 C31.5731203,31.2025 33.1640977,31.749375 35.2738722,31.749375 L39.0567669,31.749375 C39.506391,31.749375 39.8738722,31.801875 40.1592105,31.91125 C40.5353383,32.06 40.8163534,32.309375 40.9979323,32.668125 C41.1881579,33.026875 41.2789474,33.50375 41.2789474,34.094375 L41.2789474,35.42875 C41.2789474,36.334375 40.9460526,36.938125 40.2759398,37.244375 L39.337782,37.506875 L36.1342105,37.5725 C34.275188,37.5725 32.1178571,37.45 29.6492481,37.205 L29.6492481,40.95 C31.9406015,41.628125 35.1182331,41.969375 39.1864662,41.969375 C39.9430451,41.969375 40.6347744,41.90375 41.2616541,41.78125 C41.9015038,41.663125 42.4721805,41.470625 42.9866541,41.22125 C44.9969925,40.285 45.9956767,38.29875 45.9956767,35.258125 L45.9956767,33.595625 C45.9956767,32.300625 45.775188,31.128125 45.3212406,30.086875 C44.8889098,29.04125 44.2404135,28.2625 43.3800752,27.750625 C42.5154135,27.23 41.4475564,26.971875 40.1592105,26.971875 L36.2639098,26.971875 C35.2738722,26.971875 34.5951128,26.814375 34.2103383,26.50375 C33.8212406,26.184375 33.631015,25.545625 33.631015,24.59625 L33.631015,23.358125 C33.631015,22.299375 33.8644737,21.625625 34.3400376,21.345625 C34.8112782,21.07875 35.5505639,20.9475 36.562218,20.9475 L39.0092105,20.9475 C40.5223684,20.9475 42.5543233,21.056875 45.1093985,21.28 L45.1093985,21.28 Z M26.5926692,3.5175 C25.6761278,2.35375 24.4828947,1.491875 23.0043233,0.914375 C21.5214286,0.34125 19.7704887,0.056875 17.7385338,0.056875 L0.0345864662,0.056875 L0.0345864662,41.628125 L7.90300752,41.628125 L7.90300752,25.151875 L12.5073308,25.790625 L18.862594,26.289375 C20.6567669,26.289375 22.2780075,25.9525 23.743609,25.265625 C24.8546992,24.784375 25.7798872,24.075625 26.5105263,23.135 C27.2411654,22.211875 27.8593985,20.8775 28.3738722,19.13625 C28.8710526,17.40375 29.1131579,15.32125 29.1131579,12.8975 C29.1131579,8.719375 28.2701128,5.59125 26.5926692,3.5175 L26.5926692,3.5175 Z M20.1552632,8.56625 C20.8469925,9.52875 21.1971805,10.994375 21.218797,12.954375 C21.218797,14.5075 21.0588346,15.763125 20.7259398,16.725625 C20.418985,17.688125 19.9434211,18.361875 19.2992481,18.746875 C18.7328947,19.08375 18.0022556,19.245625 17.1116541,19.245625 L7.90300752,19.245625 L7.90300752,7.100625 L17.1116541,7.100625 C18.4605263,7.100625 19.4750627,7.58916667 20.1552632,8.56625 L20.1552632,8.56625 Z" id="path3"></path>
                    </g>
                </g>
            </g>
            <g id="brackets" sketch:type="MSLayerGroup" transform="translate(219.000000, 0.000000)">
                <g id="BackgroundInner-Copy" fill="#115A91" sketch:type="MSShapeGroup">
                    <g id="shape2">
                        <path d="M79.0485201,56.4648363 C79.6249471,55.0534319 80.1146934,53.6030623 80.522093,52.1093981 C81.4755814,48.6068638 81.9523256,44.8965153 81.9523256,40.9826822 C81.9523256,29.6799014 77.9520085,20.0324182 69.9513742,12.0402323 C61.95074,4.04804646 52.2901691,0.0519535375 40.9739958,0.0519535375 C29.6578224,0.0519535375 20.0015856,4.04804646 12.0009514,12.0402323 C4.00031712,20.0324182 0,29.6784583 0,40.9826822 C0,52.286906 4.00031712,61.9372756 12.0009514,69.9294615 C19.1217759,77.0470961 27.560148,80.9955649 37.3073996,81.7705385 C38.5079281,81.8701162 39.7301268,81.9177402 40.9739958,81.9177402 C41.6241015,81.9177402 42.2698732,81.9047518 42.8809725,81.8787751 C53.3953488,81.4458289 62.410148,77.4627244 69.9513742,69.9294615 C74.0167019,65.8684266 77.0505285,61.3787751 79.0485201,56.4648363 L79.0485201,56.4648363 Z" id="path1"></path>
                    </g>
                </g>
                <path d="M81.7317492,36.4769152 C81.8788001,37.9484133 81.9523256,39.4503356 81.9523256,40.9826822 C81.9523256,44.8965153 81.4755814,48.6068638 80.522093,52.1093981 C80.1146934,53.6030623 79.6249471,55.0534319 79.0485201,56.4648363 C77.0505285,61.3787751 74.0167019,65.8684266 69.9513742,69.9294615 C62.410148,77.4627244 53.3953488,81.4458289 42.8809725,81.8787751 C42.2698732,81.9047518 41.6241015,81.9177402 40.9739958,81.9177402 C39.7301268,81.9177402 38.5079281,81.8701162 37.3073996,81.7705385 C37.016366,81.7473994 36.7264992,81.721431 36.4377996,81.6926336 L16.6139051,61.8687391 C15.3075746,60.5624085 21.7559437,52.9817332 21.7559437,52.9817332 L47.2076578,31.2749865 C47.2076578,31.2749865 62.650304,17.39547 65.0005823,19.7457483 L81.7317492,36.4769152 Z" id="path1-copy" fill-opacity="0.2" fill="#041725" sketch:type="MSShapeGroup"></path>
                <g id="Layer_1" transform="translate(13.500000, 16.000000)" sketch:type="MSShapeGroup">
                    <path d="M55,38.1548975 C55,44.6697039 49.6818182,50 43.1818182,50 L11.8181818,50 C5.31818182,50 0,44.6697039 0,38.1548975 L0,11.8451025 C0,5.33029613 5.31818182,0 11.8181818,0 L43.1818182,0 C49.6818182,0 55,5.33029613 55,11.8451025 L55,38.1548975 L55,38.1548975 Z" id="Shape" fill="url(#linearGradient-1)"></path>
                    <path d="M49,37.5521472 C49,40.5609509 46.5159409,43 43.4516129,43 L11.5483871,43 C8.48405914,43 6,40.5609509 6,37.5521472 L6,11.4478528 C6,8.43904908 8.48405914,6 11.5483871,6 L43.4516129,6 C46.5159409,6 49,8.43904908 49,11.4478528 L49,37.5521472 L49,37.5521472 Z" id="Shape" fill="#FFFFFF"></path>
                    <g id="Group" transform="translate(10.000000, 10.000000)" fill="#4D4D4D">
                        <path d="M15.3141361,0.824104235 L15.3141361,7.32247557 L7.13612565,7.32247557 L7.13612565,22.029316 L15.3141361,22.029316 L15.3141361,28.5276873 L0.570680628,28.5276873 L0.570680628,0.824104235 L15.3141361,0.824104235 L15.3141361,0.824104235 Z" id="Shape"></path>
                    </g>
                    <g id="Group" transform="translate(29.000000, 10.000000)" fill="#4D4D4D">
                        <path d="M15.3141361,0.824104235 L15.3141361,28.5276873 L0.570680628,28.5276873 L0.570680628,22.029316 L8.7486911,22.029316 L8.7486911,7.32247557 L0.570680628,7.32247557 L0.570680628,0.824104235 L15.3141361,0.824104235 L15.3141361,0.824104235 Z" id="Shape"></path>
                    </g>
                </g>
            </g>
            <g id="coda" sketch:type="MSLayerGroup" transform="translate(1.000000, 109.000000)">
                <g id="circle" fill="#4F5691" sketch:type="MSShapeGroup">
                    <g id="shape2">
                        <path d="M82,41 C82,40.4608696 81.9913043,39.9246377 81.973913,39.3913043 C81.6043478,28.7565217 77.6130435,19.6304348 69.9913043,12.0086957 C61.9869565,4.00434783 52.3217391,0 41,0 C29.673913,0 20.0130435,4.00434783 12.0086957,12.0086957 C4.00434783,20.0130435 0,29.673913 0,41 C0,52.3217391 4.00434783,61.9869565 12.0086957,69.9913043 C19.3130435,77.2956522 28.0043478,81.2695652 38.0782609,81.9130435 C39.0347826,81.9695652 40.0086957,82 41,82 C52.3217391,82 61.9869565,77.9956522 69.9913043,69.9913043 C77.9956522,61.9869565 82,52.3217391 82,41 L82,41 Z" id="path1"></path>
                    </g>
                </g>
                <g id="ico-shadow" transform="translate(21.000000, 13.000000)" fill-opacity="0.2" fill="#000000" sketch:type="MSShapeGroup">
                    <g id="shape4">
                        <path d="M61,27.6613723 C61,27.1177891 60.9913475,26.5771283 60.9740426,26.0393901 L35.3583688,0.0832909784 L31.594539,9.28036849 L2.44,34.8945362 L0.0259574468,51.4124524 L17.2963121,68.9123253 C18.2480851,68.9693139 19.2171631,69 20.2035461,69 C31.469078,69 41.0863121,64.9625794 49.050922,56.892122 C57.0155319,48.8216645 61,39.0766201 61,27.6613723 L61,27.6613723 Z" id="path2"></path>
                    </g>
                </g>
                <g id="ico" transform="translate(16.000000, 13.000000)" sketch:type="MSShapeGroup">
                    <g id="Symbole.__201_1">
                        <g id="Calque.__202">
                            <g id="drawingObject5" fill="#659D65">
                                <path d="M39.2564704,43.4631975 C53.484543,26.7250784 40.4318891,0.086369906 40.4318891,0.086369906 L42.2599273,4.50826332 L40.4318891,0.086369906 C23.9271243,18.2296677 10.767782,13.1235737 2.91479924,29.1968903 C-0.357855959,35.9037827 -0.801173996,41.8587126 1.58484512,47.0616803 C2.78330784,49.6724974 4.30655577,51.6040878 6.15458891,52.8564514 C10.3485048,35.3783072 31.5618929,23.04321 31.5618929,23.04321 C12.1979159,40.51679 12.1110172,55.2547085 12.1110172,55.2547085 L14.3499771,55.7585329 L12.1110172,55.2547085 C12.1110172,55.2547085 25.0342906,60.1791097 39.2564704,43.4631975 L39.2564704,43.4631975 Z" id="path8"></path>
                            </g>
                            <g id="drawingObject6" transform="translate(12.049713, 0.000000)" fill="#568357">
                                <path d="M27.2067572,43.4631975 C33.1319324,36.4861358 35.1042447,27.1648276 33.1236941,15.4992727 C32.506608,11.8434148 31.5354481,8.17974504 30.2102141,4.50826332 L28.3821759,0.086369906 C32.1126616,14.7550345 19.5121797,23.04321 19.5121797,23.04321 C0.148202677,40.51679 0.0613040153,55.2547085 0.0613040153,55.2547085 L2.30026386,55.7585329 L0.0613040153,55.2547085 C0.0613040153,55.2547085 12.9845774,60.1791097 27.2067572,43.4631975 L27.2067572,43.4631975 Z" id="path9"></path>
                            </g>
                            <g id="drawingObject7" transform="translate(19.613767, 44.062696)" fill="#659D65">
                                <path d="M2.54591969,3.47726646 C2.71206501,2.85828213 2.05399235,0.976401254 2.17035564,0.0123761755 C1.77192352,0.877304075 0.275384321,2.20673354 0.109151052,2.82571787 C-0.0569942639,3.44470219 0.360260038,4.10125392 1.0248413,4.27899687 C1.36452008,4.369814 1.68218101,4.33625496 1.97782409,4.17831975 C2.27346718,4.02044305 2.46283238,3.78675862 2.54591969,3.47726646 L2.54591969,3.47726646 Z" id="path10"></path>
                            </g>
                            <g id="drawingObject8" transform="translate(34.302103, 24.752351)" fill="#659D65">
                                <path d="M5.48596176,7.6221442 C5.84798088,6.27366771 4.40957935,2.16916614 4.66174379,0.0804012539 C3.7731434,1.97527273 0.531506692,4.85216301 0.169487572,6.2006395 C-0.198512428,7.57123511 0.706887189,8.97430721 2.16894837,9.36525392 C2.90735245,9.56268757 3.59829063,9.49469175 4.24176291,9.16126646 C4.88922243,8.81315361 5.30395539,8.30011285 5.48596176,7.6221442 L5.48596176,7.6221442 Z" id="path11"></path>
                            </g>
                            <g id="drawingObject9" transform="translate(10.026769, 23.874608)" fill="#82D282">
                                <path d="M3.79777055,5.27760502 C4.05292543,4.3270094 3.05473423,1.50120376 3.22923518,0.0552100313 C2.61760229,1.36058934 0.375739962,3.34376176 0.120497132,4.29435737 C-0.128764818,5.22283386 0.483131931,6.21573668 1.50208031,6.48818809 C2.00423964,6.62248276 2.48540727,6.56949634 2.94558317,6.32922884 C3.38705417,6.09978683 3.67111663,5.74924556 3.79777055,5.27760502 L3.79777055,5.27760502 Z" id="path12"></path>
                            </g>
                        </g>
                    </g>
                </g>
            </g>
            <g id="Axure" sketch:type="MSLayerGroup" transform="translate(110.000000, 109.000000)">
                <g id="BackgroundInner-Copy-2" fill="#3F2C50" sketch:type="MSShapeGroup">
                    <g id="shape2">
                        <path d="M79.0485201,56.4648363 C79.6249471,55.0534319 80.1146934,53.6030623 80.522093,52.1093981 C81.4755814,48.6068638 81.9523256,44.8965153 81.9523256,40.9826822 C81.9523256,29.6799014 77.9520085,20.0324182 69.9513742,12.0402323 C61.95074,4.04804646 52.2901691,0.0519535375 40.9739958,0.0519535375 C29.6578224,0.0519535375 20.0015856,4.04804646 12.0009514,12.0402323 C4.00031712,20.0324182 0,29.6784583 0,40.9826822 C0,52.286906 4.00031712,61.9372756 12.0009514,69.9294615 C19.1217759,77.0470961 27.560148,80.9955649 37.3073996,81.7705385 C38.5079281,81.8701162 39.7301268,81.9177402 40.9739958,81.9177402 C41.6241015,81.9177402 42.2698732,81.9047518 42.8809725,81.8787751 C53.3953488,81.4458289 62.410148,77.4627244 69.9513742,69.9294615 C74.0167019,65.8684266 77.0505285,61.3787751 79.0485201,56.4648363 L79.0485201,56.4648363 Z" id="path1"></path>
                    </g>
                </g>
                <path d="M81.7590036,36.7590036 C81.8878849,38.1402315 81.9523256,39.5481243 81.9523256,40.9826822 C81.9523256,44.8965153 81.4755814,48.6068638 80.522093,52.1093981 C80.1146934,53.6030623 79.6249471,55.0534319 79.0485201,56.4648363 C77.0505285,61.3787751 74.0167019,65.8684266 69.9513742,69.9294615 C62.410148,77.4627244 53.3953488,81.4458289 42.8809725,81.8787751 C42.2698732,81.9047518 41.6241015,81.9177402 40.9739958,81.9177402 C39.7301268,81.9177402 38.5079281,81.8701162 37.3073996,81.7705385 C37.2011914,81.7620943 37.0951387,81.7532732 36.9892414,81.7440754 L13.0536051,57.8084391 L13.0186192,43.0835744 C13.0186192,43.0835744 19.6237744,47.6645152 19.6332557,41.5949284 C19.634209,40.9846587 13.0301031,35.7320884 13.0312577,34.9929295 C13.0354173,32.3301055 13.0409459,28.7908827 13.0482941,24.0868173 C27.8331703,29.3731566 40.7041557,28.9202764 40.7041557,28.9202764 C40.7041557,28.9202764 53.2378262,29.8698804 68.9424529,23.9424529 L81.7590036,36.7590036 Z" id="path1-copy-2" fill-opacity="0.2" fill="#000000" sketch:type="MSShapeGroup"></path>
                <g id="Rectangle-11-+-Rectangle-13-+-Rectangle-13-Copy" transform="translate(13.000000, 24.000000)" sketch:type="MSShapeGroup">
                    <rect id="Rectangle-11" fill="#7ED321" x="0" y="0" width="56" height="11"></rect>
                    <rect id="Rectangle-13" fill="#4990E2" x="0" y="17" width="12" height="17"></rect>
                    <rect id="Rectangle-13-Copy" fill="#D0011B" x="19" y="17" width="37" height="17"></rect>
                </g>
            </g>
            <g id="Blocs" sketch:type="MSLayerGroup" transform="translate(219.000000, 109.000000)">
                <g id="BackgroundInner-Copy-3" fill="#2C3E50" sketch:type="MSShapeGroup">
                    <g id="shape2">
                        <path d="M79.0485201,56.4648363 C79.6249471,55.0534319 80.1146934,53.6030623 80.522093,52.1093981 C81.4755814,48.6068638 81.9523256,44.8965153 81.9523256,40.9826822 C81.9523256,29.6799014 77.9520085,20.0324182 69.9513742,12.0402323 C61.95074,4.04804646 52.2901691,0.0519535375 40.9739958,0.0519535375 C29.6578224,0.0519535375 20.0015856,4.04804646 12.0009514,12.0402323 C4.00031712,20.0324182 0,29.6784583 0,40.9826822 C0,52.286906 4.00031712,61.9372756 12.0009514,69.9294615 C19.1217759,77.0470961 27.560148,80.9955649 37.3073996,81.7705385 C38.5079281,81.8701162 39.7301268,81.9177402 40.9739958,81.9177402 C41.6241015,81.9177402 42.2698732,81.9047518 42.8809725,81.8787751 C53.3953488,81.4458289 62.410148,77.4627244 69.9513742,69.9294615 C74.0167019,65.8684266 77.0505285,61.3787751 79.0485201,56.4648363 L79.0485201,56.4648363 Z" id="path1"></path>
                    </g>
                </g>
                <path d="M81.8625566,43.8858972 C81.6835251,46.7425794 81.2367039,49.4843539 80.522093,52.1093981 C80.1146934,53.6030623 79.6249471,55.0534319 79.0485201,56.4648363 C77.0505285,61.3787751 74.0167019,65.8684266 69.9513742,69.9294615 C62.8690149,77.0043421 54.486954,80.9479585 44.7836514,81.7603108 L18.9872373,55.9638967 C37.8057778,40.9999996 41.3300968,38.9732618 41.3300968,38.9732618 L42.8970667,37.4062918 C42.8970667,37.4062918 41.749773,37.3313488 64.2714947,26.2948353 L81.8625566,43.8858972 Z" id="path1-copy-3" fill-opacity="0.2" fill="#000000" sketch:type="MSShapeGroup"></path>
                <g id="Group" transform="translate(17.000000, 14.000000)" sketch:type="MSShapeGroup">
                    <path d="M24.4999121,2 C23.3174362,2 22.1347846,2.30682744 21.0751793,2.92065865 L5.42490849,11.9849408 C3.30552224,13.2124268 2,15.4808339 2,17.9356297 L2,36.0643703 C2,38.5193425 3.30552224,40.7877494 5.42490849,42.0150593 L21.0751793,51.0795176 C22.1347846,51.6931725 23.3174362,52 24.4999121,52 C25.6825637,52 26.8650396,51.6931725 27.9248206,51.0795176 L43.5750915,42.0150593 C45.6944776,40.7877494 47,38.5193425 47,36.0643703 L47,17.9356297 C47,15.4808339 45.6944776,13.2124268 43.5750915,11.9849408 L27.9248206,2.92065865 C26.8650396,2.30682744 25.6825637,2 24.4999121,2" id="Shape" fill="#FFFFFF"></path>
                    <path d="M45.2706552,10.7838599 L28.2292491,0.994261985 C25.9214729,-0.331420662 23.078527,-0.331420662 20.7707508,0.994261985 L3.7293448,10.7838599 C1.42156866,12.1093521 0,14.5592273 0,17.2104022 L0,36.7894075 C0,39.4407728 1.42156866,41.8906479 3.7293448,43.2161403 L20.7707508,53.0057381 C23.078527,54.3314206 25.9214729,54.3314206 28.2292491,53.0057381 L45.2706552,43.2161403 C47.5784312,41.8906479 49,39.4407728 49,36.7894075 L49,17.2104022 C49,14.5592273 47.5784312,12.1093521 45.2706552,10.7838599 L45.2706552,10.7838599 L45.2706552,10.7838599 Z M46,35.0205433 C46,37.3280149 44.7235746,39.4602585 42.6513787,40.614086 L27.3487166,49.1346294 C25.2765207,50.2884569 22.7234794,50.2884569 20.6512835,49.1346294 L5.34862145,40.614086 C3.27642554,39.4602585 2,37.3280149 2,35.0205433 L2,17.9794566 C2,15.6718018 3.27642554,13.5395581 5.34862145,12.385914 L20.6512835,3.86537055 C22.7234794,2.71154315 25.2765207,2.71154315 27.3487166,3.86537055 L42.6513787,12.385914 C44.7235746,13.5395581 46,15.6718018 46,17.9794566 L46,35.0205433 L46,35.0205433 Z" id="Shape" fill="#144679"></path>
                    <path d="M43.5750915,11.9850554 L27.9248206,2.92061295 C25.8054343,1.69312902 23.1945656,1.69312902 21.0751793,2.92061295 L5.42490849,11.9850554 C3.30552224,13.212363 2,15.480766 2,17.9355576 L2,36.0642662 C2,38.5192341 3.30552224,40.787637 5.42490849,42.0149447 L21.0751793,51.0793871 C23.1945656,52.306871 25.8054343,52.306871 27.9248206,51.0793871 L43.5750915,42.0149447 C45.6944776,40.787637 47,38.5192341 47,36.0642662 L47,17.9355576 C47,15.480766 45.6944776,13.212363 43.5750915,11.9850554 L43.5750915,11.9850554 L43.5750915,11.9850554 Z M44.8473911,35.1972156 C44.8473911,37.4171259 43.6668489,39.4684577 41.7503134,40.578501 L27.5971657,48.7757167 C25.6806302,49.88576 23.3193698,49.88576 21.4028343,48.7757167 L7.24968652,40.578501 C5.33315104,39.4684577 4.15260877,37.4171259 4.15260877,35.1972156 L4.15260877,18.8027844 C4.15260877,16.5826978 5.33315104,14.531366 7.24968652,13.4214991 L21.4028343,5.22428341 C23.3193698,4.11424012 25.6806302,4.11424012 27.5971657,5.22428341 L41.7503134,13.4214991 C43.6668489,14.531366 44.8473911,16.5826978 44.8473911,18.8027844 L44.8473911,35.1972156 L44.8473911,35.1972156 Z" id="Shape-Copy" fill="#298AEC"></path>
                    <path d="M15,21 L35,21 L35,23 L15,23 L15,21 L15,21 Z" id="Shape" fill="#44546C"></path>
                    <path d="M15,27 L35,27 L35,29 L15,29 L15,27 L15,27 Z" id="Shape" fill="#44546C"></path>
                    <path d="M15,33 L35,33 L35,35 L15,35 L15,33 L15,33 Z" id="Shape" fill="#44546C"></path>
                </g>
            </g>
            <g id="github" sketch:type="MSLayerGroup" transform="translate(109.000000, 218.000000)">
                <g id="brush" fill="#616B6D" sketch:type="MSShapeGroup">
                    <g id="shape2">
                        <path d="M83,41 C83,37.9638841 82.7088105,35.0472174 82.1264316,32.25 L82.128632,32.2521739 C80.5399258,24.6130435 76.7772004,17.8652174 70.8448568,12.0086957 C62.742895,4.00434783 52.9598091,0 41.5,0 C30.03579,0 20.257105,4.00434783 12.1551432,12.0086957 C4.05318134,20.0130435 0,29.673913 0,41 C0,52.3217391 4.05318134,61.9869565 12.1551432,69.9913043 C18.804825,76.5608696 26.5811241,80.4347826 35.492842,81.6130435 C37.4424178,81.8695652 39.4448038,82 41.5,82 C52.9598091,82 62.742895,77.9956522 70.8448568,69.9913043 C78.9468187,61.9869565 83,52.3217391 83,41 L83,41 Z" id="path1"></path>
                    </g>
                </g>
                <g id="ico-shadow" transform="translate(13.000000, 14.000000)" fill-opacity="0.2" fill="#000000" sketch:type="MSShapeGroup">
                    <g id="shape4">
                        <path d="M69.0798645,18.0681279 L49.9875603,0.169402418 L0.027289154,45.6442407 L22.2948232,67.6083546 C24.2525253,67.8679847 26.2632576,68 28.3270202,68 C39.834596,68 49.6584596,63.9471301 57.7941919,55.8457908 C65.9299242,47.7444515 70,37.9621173 70,26.5031888 C70,23.4302832 69.6646709,20.8992402 69.0798645,18.0681279 Z" id="path2"></path>
                    </g>
                </g>
                <g id="ico" transform="translate(10.000000, 13.000000)" sketch:type="MSShapeGroup">
                    <g id="Symbole.__206_1">
                        <g id="Calque.__208">
                            <g id="Symbole.__208_2" fill="#313637">
                                <g id="Calque.__209">
                                    <g id="shape26">
                                        <path d="M59.1002809,15.285906 C59.0480337,15.2204698 58.9914326,15.159396 58.9217697,15.0939597 C58.1511236,14.3218121 57.027809,13.754698 55.5474719,13.388255 C55.1860955,13.3010067 54.829073,13.2181208 54.4720506,13.1308725 C54.9030899,10.7053691 54.9248596,7.90469799 54.5417135,4.73758389 C54.3472378,3.12058166 53.8654026,1.92527964 53.0962079,1.15167785 C52.3255618,0.383892617 51.3981742,0 50.3140449,0 C48.0282303,0.33590604 44.0748596,3.88691275 38.4539326,10.6312081 C35.9678371,10.4436242 33.4860955,10.3520134 31,10.347651 C28.5139045,10.3520134 26.0321629,10.4436242 23.5460674,10.6312081 C17.9251404,3.88691275 13.9717697,0.33590604 11.690309,0 C10.6018258,0 9.6744382,0.383892617 8.90379213,1.15167785 C8.1375,1.92818792 7.65421348,3.12348993 7.45828652,4.73758389 C7.07514045,7.90469799 7.09691011,10.7053691 7.52794944,13.1308725 C7.17092697,13.2181208 6.81390449,13.3010067 6.45252809,13.388255 C4.97219101,13.754698 3.8488764,14.3218121 3.07823034,15.0939597 C3.01727528,15.159396 2.95196629,15.2204698 2.8997191,15.285906 C2.23792135,15.9620805 1.65449438,17.3755034 1.14073034,19.5392617 C0.396207865,22.6802013 0.0261235955,26.4711409 0.0261235955,30.9120805 C0.0261235955,35.3530201 0.396207865,39.1395973 1.14073034,42.2848993 C1.45421348,43.5936242 1.78946629,44.6275168 2.15519663,45.3909396 C2.34241573,45.9187919 2.65154494,46.3942953 3.07823034,46.8218121 C3.8488764,47.5983221 5.17247191,48.2395973 7.04466292,48.7456376 C14.9426966,50.8832215 22.927809,51.9345638 31,51.9214765 C39.072191,51.9345638 47.0573034,50.8832215 54.9553371,48.7456376 C56.831882,48.2395973 58.1511236,47.5983221 58.9217697,46.8218121 C59.3484551,46.3942953 59.6575843,45.9187919 59.8535112,45.3909396 C60.2105337,44.6275168 60.5501404,43.5936242 60.8592697,42.2848993 C61.6037921,39.1395973 61.9738764,35.3530201 61.9738764,30.9120805 C61.9738764,26.4711409 61.6037921,22.6802013 60.8592697,19.5392617 C60.3498596,17.3755034 59.7620787,15.9620805 59.1002809,15.285906 L59.1002809,15.285906 Z" id="path23"></path>
                                    </g>
                                </g>
                            </g>
                            <g id="Symbole.__210_2" transform="translate(7.837079, 21.463087)" fill="#FFC09C">
                                <g id="Calque.__210">
                                    <g id="shape27">
                                        <path d="M45.8523961,4.91103356 C45.6849438,4.08697315 45.2170702,3.28760403 44.4488624,2.51292617 C43.6756039,1.74313423 42.6512978,1.27932215 41.3659298,1.12637584 C35.2395112,0.391134228 29.1722191,0.0161409396 23.1640534,0.0112550336 L23.1443736,0.0112550336 C17.1362079,0.021114094 11.0689157,0.391134228 4.94249719,1.12637584 C3.65712921,1.27932215 2.63282303,1.74313423 1.85956461,2.51292617 C1.09135674,3.28760403 0.623483146,4.08697315 0.456030899,4.91103356 C0.199932584,6.20379195 0.0620870787,7.47194631 0.0424073034,8.7202953 L0.0424073034,8.75981879 L0.0424073034,12.9441611 C0.0424073034,14.286302 0.175376404,15.5840336 0.441314607,16.8521007 C0.618606742,17.6778188 1.09135674,18.4755593 1.85956461,19.2453221 C2.63282303,20.02 3.65712921,20.4788389 4.94249719,20.6318725 C11.0541124,21.3571678 17.1214045,21.722302 23.1443736,21.7272752 L23.1640534,21.7272752 C29.1870225,21.722302 35.2543146,21.3571678 41.3659298,20.6318725 C42.6512978,20.4788389 43.6756039,20.02 44.4488624,19.2453221 C45.2170702,18.4755302 45.6898202,17.6761611 45.8671124,16.8521007 C46.1330506,15.5840336 46.2660197,14.286302 46.2660197,12.9441611 L46.2660197,8.75981879 L46.2660197,8.7202953 C46.2463399,7.47194631 46.1084944,6.20379195 45.8523961,4.91103356 L45.8523961,4.91103356 Z" id="path24"></path>
                                    </g>
                                </g>
                            </g>
                            <g id="Symbole.__212_2" transform="translate(14.977528, 23.644295)">
                                <g id="Calque.__211">
                                    <g id="shape28">
                                        <path d="M31.8533708,4.1704698 C31.6748596,3.24127517 31.3134831,2.41241611 30.7692416,1.6795302 C29.9594101,0.602013423 28.9841292,0.0610738255 27.8390449,0.0610738255 C26.6983146,0.0610738255 25.7230337,0.602013423 24.9175562,1.6795302 C24.3733146,2.40805369 24.0119382,3.23255034 23.8377809,4.1704698 C23.7507022,4.61107383 23.7071629,5.0909396 23.7071629,5.59261745 C23.7071629,7.11510067 24.1077247,8.41946309 24.9175562,9.49697987 C25.7230337,10.5788591 26.6983146,11.1154362 27.8390449,11.1154362 C28.9841292,11.1154362 29.9594101,10.5788591 30.7692416,9.49697987 C31.5747191,8.41946309 31.9796348,7.11510067 31.9796348,5.59261745 C31.9796348,5.09530201 31.9360955,4.62416107 31.8533708,4.1704698 L31.8533708,4.1704698 Z M29.7591292,4.1704698 C29.8766854,4.56744966 29.9376404,4.99932886 29.9376404,5.4704698 C29.9376404,6.34295302 29.7330056,7.08892617 29.319382,7.70402685 C28.9057584,8.31912752 28.4050562,8.62885906 27.8216292,8.62885906 C27.2382022,8.62885906 26.7375,8.31912752 26.3238764,7.70402685 C25.9102528,7.08892617 25.705618,6.34295302 25.705618,5.4704698 C25.705618,4.99932886 25.766573,4.56744966 25.8884831,4.1704698 C25.9886236,3.83456376 26.1366573,3.5204698 26.3238764,3.23691275 C26.7375,2.62181208 27.2382022,2.31208054 27.8216292,2.31208054 C28.4050562,2.31208054 28.9057584,2.62181208 29.319382,3.23691275 C29.5066011,3.5204698 29.6546348,3.83456376 29.7591292,4.1704698 L29.7591292,4.1704698 Z M8.14620787,4.1704698 C7.9633427,3.37651007 7.61938202,2.63926174 7.12738764,1.98053691 C6.32336142,0.901565996 5.34953184,0.362080537 4.20589888,0.362080537 C3.06081461,0.362080537 2.08553371,0.898657718 1.27570225,1.98053691 C0.788061798,2.63489933 0.448455056,3.37214765 0.256882022,4.1704698 C0.130617978,4.72449664 0.0653089888,5.28724832 0.0653089888,5.88489933 C0.0653089888,7.40738255 0.470224719,8.71174497 1.27570225,9.79362416 C2.08553371,10.8711409 3.06081461,11.4120805 4.20589888,11.4120805 C5.34662921,11.4120805 6.32191011,10.8711409 7.12738764,9.79362416 C7.9372191,8.71174497 8.3377809,7.40738255 8.3377809,5.88489933 C8.3377809,5.29161074 8.27682584,4.72885906 8.14620787,4.1704698 L8.14620787,4.1704698 Z M5.74719101,3.35469799 C5.91699438,3.6033557 6.05196629,3.87818792 6.15210674,4.1704698 C6.29578652,4.59798658 6.36980337,5.07348993 6.36980337,5.59261745 C6.36980337,6.46073826 6.16081461,7.20671141 5.74719101,7.82181208 C5.33356742,8.43691275 4.8372191,8.7466443 4.25379213,8.7466443 C3.66601124,8.7466443 3.16966292,8.43691275 2.75603933,7.82181208 C2.34241573,7.20671141 2.13342697,6.46073826 2.13342697,5.59261745 C2.13342697,5.07348993 2.20744382,4.59798658 2.35547753,4.1704698 C2.45561798,3.87818792 2.58623596,3.6033557 2.75603933,3.35469799 C3.16966292,2.73959732 3.66601124,2.42986577 4.25379213,2.42986577 C4.8372191,2.42986577 5.33356742,2.73959732 5.74719101,3.35469799 L5.74719101,3.35469799 Z" id="path25" fill="#FFFFFF"></path>
                                        <path d="M29.7591292,4.1704698 C29.6546348,3.83456376 29.5066011,3.5204698 29.319382,3.23691275 C28.9057584,2.62181208 28.4050562,2.31208054 27.8216292,2.31208054 C27.2382022,2.31208054 26.7375,2.62181208 26.3238764,3.23691275 C26.1366573,3.5204698 25.9886236,3.83456376 25.8884831,4.1704698 C25.766573,4.56744966 25.705618,4.99932886 25.705618,5.4704698 C25.705618,6.34295302 25.9102528,7.08892617 26.3238764,7.70402685 C26.7375,8.31912752 27.2382022,8.62885906 27.8216292,8.62885906 C28.4050562,8.62885906 28.9057584,8.31912752 29.319382,7.70402685 C29.7330056,7.08892617 29.9376404,6.34295302 29.9376404,5.4704698 C29.9376404,4.99932886 29.8766854,4.56744966 29.7591292,4.1704698 L29.7591292,4.1704698 Z" id="path26" fill="#B1603D"></path>
                                        <path d="M5.74719101,3.35469799 C5.33356742,2.73959732 4.8372191,2.42986577 4.25379213,2.42986577 C3.66601124,2.42986577 3.16966292,2.73959732 2.75603933,3.35469799 C2.58623596,3.6033557 2.45561798,3.87818792 2.35547753,4.1704698 C2.20744382,4.59798658 2.13342697,5.07348993 2.13342697,5.59261745 C2.13342697,6.46073826 2.34241573,7.20671141 2.75603933,7.82181208 C3.16966292,8.43691275 3.66601124,8.7466443 4.25379213,8.7466443 C4.8372191,8.7466443 5.33356742,8.43691275 5.74719101,7.82181208 C6.16081461,7.20671141 6.36980337,6.46073826 6.36980337,5.59261745 C6.36980337,5.07348993 6.29578652,4.59798658 6.15210674,4.1704698 C6.05196629,3.87818792 5.91699438,3.6033557 5.74719101,3.35469799 L5.74719101,3.35469799 Z M16.0224719,11.857047 C16.3141854,11.857047 16.5667135,11.752349 16.7713483,11.5473154 C16.9803371,11.3379195 17.0848315,11.0892617 17.0848315,10.7969799 C17.0848315,10.504698 16.9803371,10.2516779 16.7713483,10.0466443 C16.5667135,9.83724832 16.3141854,9.73255034 16.0224719,9.73255034 C15.7307584,9.73255034 15.4782303,9.83724832 15.2735955,10.0466443 C15.0646067,10.2516779 14.9601124,10.504698 14.9601124,10.7969799 C14.9601124,11.0892617 15.0646067,11.3379195 15.2735955,11.5473154 C15.4782303,11.752349 15.7307584,11.857047 16.0224719,11.857047 L16.0224719,11.857047 Z" id="path27" fill="#B1603D"></path>
                                        <path d="M22.8450843,16.3765101 C23.0410112,16.1802013 23.1411517,15.9402685 23.1455056,15.6567114 C23.1411517,15.3731544 23.0410112,15.1332215 22.8450843,14.9369128 C22.6491573,14.740604 22.409691,14.6402685 22.1266854,14.6402685 L9.91825843,14.6402685 C9.63525281,14.6402685 9.39578652,14.740604 9.19985955,14.9369128 C9.00393258,15.1332215 8.90379213,15.3731544 8.90379213,15.6567114 C8.90379213,15.9402685 9.00393258,16.1802013 9.19985955,16.3765101 C9.39578652,16.5728188 9.63525281,16.6731544 9.91825843,16.6775168 L22.1266854,16.6775168 C22.409691,16.6731544 22.6491573,16.5728188 22.8450843,16.3765101 L22.8450843,16.3765101 Z" id="path28" fill="#B36038"></path>
                                    </g>
                                </g>
                            </g>
                        </g>
                    </g>
                </g>
            </g>
            <g id="RTB" sketch:type="MSLayerGroup" transform="translate(0.000000, 218.000000)">
                <g id="BackgroundInner-Copy-4" fill="#331B06" sketch:type="MSShapeGroup">
                    <g id="shape2">
                        <path d="M79.0485201,56.4648363 C79.6249471,55.0534319 80.1146934,53.6030623 80.522093,52.1093981 C81.4755814,48.6068638 81.9523256,44.8965153 81.9523256,40.9826822 C81.9523256,29.6799014 77.9520085,20.0324182 69.9513742,12.0402323 C61.95074,4.04804646 52.2901691,0.0519535375 40.9739958,0.0519535375 C29.6578224,0.0519535375 20.0015856,4.04804646 12.0009514,12.0402323 C4.00031712,20.0324182 0,29.6784583 0,40.9826822 C0,52.286906 4.00031712,61.9372756 12.0009514,69.9294615 C19.1217759,77.0470961 27.560148,80.9955649 37.3073996,81.7705385 C38.5079281,81.8701162 39.7301268,81.9177402 40.9739958,81.9177402 C41.6241015,81.9177402 42.2698732,81.9047518 42.8809725,81.8787751 C53.3953488,81.4458289 62.410148,77.4627244 69.9513742,69.9294615 C74.0167019,65.8684266 77.0505285,61.3787751 79.0485201,56.4648363 L79.0485201,56.4648363 Z" id="path1"></path>
                    </g>
                </g>
                <path d="M81.9523256,40.9826822 C81.9523256,44.8965153 81.4755814,48.6068638 80.522093,52.1093981 C80.1146934,53.6030623 79.6249471,55.0534319 79.0485201,56.4648363 C77.0505285,61.3787751 74.0167019,65.8684266 69.9513742,69.9294615 C62.410148,77.4627244 53.3953488,81.4458289 42.8809725,81.8787751 C42.2698732,81.9047518 41.6241015,81.9177402 40.9739958,81.9177402 C39.7301268,81.9177402 38.5079281,81.8701162 37.3073996,81.7705385 C36.4728914,81.7041894 35.6479771,81.6145789 34.8326622,81.5017098 L18.4561871,65.1252347 C14.3740021,61.0430497 46.606002,47.1688747 46.606002,47.1688747 L49.3405296,52.1093971 C49.3405296,52.1093971 61.0090145,14.3399669 65.0741819,18.4051343 C70.5629424,23.8938948 81.5404634,34.8714158 81.5404634,34.8714158 C81.8150366,36.8516908 81.9523256,38.8887819 81.9523256,40.9826822 Z" id="path1-copy-4" fill="#231000" sketch:type="MSShapeGroup"></path>
                <g id="Logo" transform="translate(18.000000, 18.000000)" sketch:type="MSShapeGroup">
                    <g id="Page-1">
                        <g id="main">
                            <g id="Header">
                                <g id="Logo">
                                    <path d="M40.8239694,47 L0,47 L0,0 L47,0 L47,40.8240475" id="Fill-1" fill="#FBCF47"></path>
                                    <path d="M9.14668254,29.9625 C9.3454911,29.9625 9.5246405,29.9972823 9.68398296,30.0649668 C9.84332544,30.1326515 9.97960905,30.2265011 10.0938685,30.3446356 C10.2078324,30.4627701 10.2944508,30.5998626 10.3546107,30.7557563 C10.414475,30.91165 10.4444811,31.0794512 10.4444811,31.2591598 C10.4444811,31.5363217 10.3899381,31.7750976 10.2798174,31.9765842 C10.1702879,32.1791678 9.99113848,32.3325546 9.7431082,32.4373717 L9.7431082,32.450846 C9.86298457,32.4862549 9.96231493,32.5398384 10.0409515,32.61238 C10.1194402,32.6849215 10.1840345,32.7698405 10.2334041,32.869017 C10.2833649,32.9675669 10.3192834,33.0761442 10.3423423,33.1942787 C10.3651055,33.3133532 10.3801824,33.431488 10.3887556,33.550406 C10.3928943,33.6245141 10.3970331,33.7127234 10.4011719,33.8136233 C10.4054584,33.9142101 10.4125535,34.0174602 10.4229004,34.1222773 C10.4330995,34.2278778 10.4498023,34.3278377 10.4724177,34.4223138 C10.4953288,34.5169469 10.5296214,34.596539 10.575,34.6625 L9.60002516,34.6625 C9.54651683,34.5136569 9.51311108,34.3358283 9.50084261,34.1293279 C9.48857411,33.9229841 9.46994969,33.7252574 9.44467365,33.5370882 C9.41200697,33.2912618 9.34135234,33.11171 9.23359662,32.9974924 C9.12598874,32.8832748 8.95009121,32.8257741 8.70605187,32.8257741 L7.73107703,32.8257741 L7.73107703,34.6625 L6.75625,34.6625 L6.75625,29.9625 L9.14668254,29.9625 L9.14668254,29.9625 Z M8.79887846,32.0893919 C9.0226674,32.0893919 9.19058304,32.0365915 9.30203405,31.9309913 C9.41378072,31.8253908 9.46994969,31.6544562 9.46994969,31.4175604 C9.46994969,31.1891251 9.41378072,31.0236742 9.30203405,30.9204237 C9.19058304,30.8181138 9.0226674,30.7659403 8.79887846,30.7659403 L7.73107703,30.7659403 L7.73107703,32.0893919 L8.79887846,32.0893919 L8.79887846,32.0893919 Z" id="Fill-2" fill="#FFFFFF"></path>
                                    <path d="M12.2712157,33.7752719 C12.4045121,33.9085645 12.5968525,33.9759819 12.8476405,33.9759819 C13.0267109,33.9759819 13.1814779,33.9293914 13.3107485,33.8363643 C13.4404664,33.7433372 13.5199373,33.6449106 13.548863,33.5417016 L14.3316437,33.5417016 C14.2065479,33.9434303 14.0146548,34.2305336 13.7556662,34.4034745 C13.4966776,34.5764154 13.1834162,34.6625 12.8160311,34.6625 C12.5612173,34.6625 12.3318999,34.6205375 12.127184,34.5359957 C11.9226174,34.4522249 11.7490637,34.3320456 11.6069704,34.1768464 C11.4653243,34.0210299 11.3554368,33.8355929 11.2782025,33.6193012 C11.200819,33.4028551 11.1625,33.1655823 11.1625,32.9065565 C11.1625,32.6560162 11.20231,32.4226001 11.2817809,32.2063082 C11.3606553,31.9904792 11.4735249,31.8036539 11.6197931,31.6462947 C11.7659121,31.4878556 11.9402113,31.3639739 12.1428397,31.2731065 C12.3453189,31.1823935 12.569567,31.1375 12.8160311,31.1375 C13.0918681,31.1375 13.3317718,31.1924216 13.5363385,31.3018014 C13.7410542,31.4127244 13.9089421,31.5608269 14.0408966,31.746264 C14.1721055,31.9323182 14.267232,32.144136 14.3258287,32.3814091 C14.3841272,32.6186818 14.4047032,32.8678338 14.3883021,33.1267051 L12.051888,33.1267051 C12.0642634,33.4246078 12.1373229,33.6408995 12.2712157,33.7752719 L12.2712157,33.7752719 L12.2712157,33.7752719 Z M13.2763062,32.012232 C13.169848,31.8912813 13.0079242,31.8308061 12.7909821,31.8308061 C12.6488888,31.8308061 12.531248,31.8556441 12.4371652,31.905166 C12.3430824,31.9549963 12.2680846,32.0160889 12.2115753,32.0898316 C12.1549169,32.1634201 12.115256,32.2410198 12.0927417,32.3232477 C12.0694819,32.4054757 12.0559137,32.4782928 12.051888,32.5435505 L13.4989141,32.5435505 C13.4570167,32.3101344 13.3827643,32.1333369 13.2763062,32.012232 L13.2763062,32.012232 L13.2763062,32.012232 Z" id="Fill-3" fill="#FFFFFF"></path>
                                    <path d="M14.7899074,32.25799 C14.8030326,32.0424697 14.8559914,31.8625863 14.95031,31.7206546 C15.0443233,31.5779514 15.1639766,31.4631718 15.3092699,31.3770872 C15.4544106,31.2902309 15.6178656,31.2289843 15.7996348,31.1924216 C15.9815567,31.1552416 16.1640891,31.1375 16.3483002,31.1375 C16.5148076,31.1375 16.6834516,31.1490705 16.8545375,31.1729829 C17.0254708,31.1964324 17.1816001,31.2430232 17.3226201,31.3119837 C17.4639453,31.3809438 17.57902,31.4770565 17.6686074,31.6004753 C17.7585,31.7238943 17.80337,31.8864988 17.80337,32.0898316 L17.80337,33.8332787 C17.80337,33.9846213 17.8122219,34.1288673 17.82901,34.2677135 C17.8461033,34.4056341 17.8758641,34.5096149 17.91875,34.578575 L16.9958628,34.578575 C16.9786168,34.526739 16.9642706,34.4739774 16.9535873,34.4196733 C16.9433618,34.3655232 16.9357309,34.3102932 16.9313049,34.254446 C16.7860116,34.4056341 16.6152309,34.5111574 16.4188102,34.5725585 C16.2216264,34.632108 16.021085,34.6625 15.8158125,34.6625 C15.6578517,34.6625 15.5104218,34.6430614 15.3733699,34.6043387 C15.2364706,34.5656163 15.1168173,34.5049865 15.0144099,34.4227586 C14.9120026,34.3414565 14.8314197,34.2374761 14.7738824,34.1117428 C14.716345,33.9869355 14.6875,33.8372899 14.6875,33.6651203 C14.6875,33.4741297 14.7204657,33.3184674 14.786855,33.1950484 C14.8527864,33.0717838 14.9384057,32.9732028 15.0431023,32.8996143 C15.1479516,32.826643 15.2676049,32.7715672 15.4022149,32.7343873 C15.5369775,32.6978242 15.6721979,32.6692838 15.8097077,32.6467596 C15.9461491,32.6256243 16.0807591,32.608654 16.2132324,32.5955408 C16.3458583,32.5822732 16.463375,32.5629891 16.5662402,32.5373797 C16.6686476,32.5109989 16.7495356,32.4728934 16.8093623,32.4233712 C16.869189,32.3744666 16.8972709,32.3016495 16.8929975,32.2063082 C16.8929975,32.1068019 16.8769725,32.028585 16.8447699,31.9694981 C16.8128725,31.9113368 16.7702918,31.8665975 16.7165699,31.8338917 C16.6633059,31.8013397 16.6014952,31.7795873 16.5308326,31.7687881 C16.46017,31.7578345 16.3843183,31.7524351 16.3029724,31.7524351 C16.1233398,31.7524351 15.9823198,31.7919292 15.8802177,31.8695288 C15.7773524,31.9471285 15.7175258,32.0767183 15.7007377,32.25799 L14.7899074,32.25799 L14.7899074,32.25799 Z M16.8929975,32.9391084 C16.8545375,32.9732028 16.8063099,33.000355 16.7487726,33.0197936 C16.6912352,33.0390777 16.6291192,33.0554308 16.56273,33.0686983 C16.4963407,33.0810402 16.4273569,33.0918393 16.354405,33.1004788 C16.2816057,33.1097351 16.2089591,33.1199171 16.1366176,33.1328762 C16.0682443,33.1461437 16.0007867,33.1632681 15.9347027,33.1848664 C15.8680082,33.2066189 15.8104708,33.2360852 15.7613274,33.272648 C15.7121841,33.3090569 15.6721979,33.3556474 15.6427425,33.4122659 C15.6128292,33.4679586 15.5978725,33.5393874 15.5978725,33.625472 C15.5978725,33.7077 15.6128292,33.7766604 15.6427425,33.8332787 C15.6721979,33.8892801 15.7134051,33.9334025 15.7643798,33.9659541 C15.8158125,33.998506 15.8757917,34.0210299 15.9440124,34.0341432 C16.0122331,34.0466393 16.0828957,34.0535818 16.1555424,34.0535818 C16.335175,34.0535818 16.4740583,34.0233441 16.572345,33.9628689 C16.670479,33.9023934 16.7434309,33.8301934 16.7902849,33.7456513 C16.8372916,33.6611095 16.8662892,33.5759502 16.8769725,33.4897113 C16.8876559,33.4028551 16.8929975,33.3338949 16.8929975,33.2819047 L16.8929975,32.9391084 L16.8929975,32.9391084 Z" id="Fill-4" fill="#FFFFFF"></path>
                                    <path d="M18.50625,29.9625 L19.3875,29.9625 L19.3875,34.6625 L18.50625,34.6625 L18.50625,29.9625 L18.50625,29.9625 Z" id="Fill-5" fill="#FFFFFF"></path>
                                    <path d="M22.03125,31.2648668 L22.03125,31.8831112 L21.3872621,31.8831112 L21.3872621,33.5490095 C21.3872621,33.7054681 21.4117359,33.8098774 21.4614209,33.8620818 C21.5111059,33.9141316 21.610181,33.9398465 21.7584987,33.9398465 C21.8081837,33.9398465 21.8555097,33.9376777 21.901214,33.9336501 C21.946476,33.9290027 21.9898213,33.9228064 22.03125,33.9141316 L22.03125,34.6298141 C21.9572386,34.6425168 21.8742337,34.6516562 21.7832675,34.6556841 C21.6925961,34.6603312 21.6036939,34.6625 21.5172981,34.6625 C21.3809224,34.6625 21.2516235,34.6524308 21.1299912,34.6330671 C21.0083589,34.6135486 20.9010275,34.5754407 20.8079972,34.5193636 C20.7149669,34.4623567 20.6415452,34.3822684 20.5883219,34.2778593 C20.5345088,34.1743797 20.5073811,34.0372846 20.5073811,33.8681233 L20.5073811,31.8831112 L19.975,31.8831112 L19.975,31.2648668 L20.5073811,31.2648668 L20.5073811,30.25625 L21.3872621,30.25625 L21.3872621,31.2648668 L22.03125,31.2648668" id="Fill-6" fill="#FFFFFF"></path>
                                    <path d="M22.61875,29.9625 L23.5,29.9625 L23.5,30.7328556 L22.61875,30.7328556 L22.61875,29.9625 L22.61875,29.9625 Z M22.61875,31.2591166 L23.5,31.2591166 L23.5,34.6625 L22.61875,34.6625 L22.61875,31.2591166 L22.61875,31.2591166 Z" id="Fill-7" fill="#FFFFFF"></path>
                                    <path d="M24.934337,31.2296353 L24.934337,31.694262 L24.9472773,31.694262 C25.0652446,31.5180514 25.2071364,31.3805599 25.3738556,31.2828933 C25.5399728,31.1860172 25.7309174,31.1375 25.9457865,31.1375 C26.1523798,31.1375 26.340616,31.1795377 26.5116987,31.2637711 C26.6821796,31.3472143 26.8118834,31.4956103 26.9005094,31.7078529 C26.9972607,31.5577185 27.1289206,31.4249682 27.2953389,31.3099177 C27.4616066,31.1945512 27.6588709,31.1375 27.8863793,31.1375 C28.0594181,31.1375 28.2192157,31.1589928 28.3665244,31.2034011 C28.5142845,31.2478093 28.6406781,31.3184515 28.7461566,31.4162761 C28.8513341,31.5133102 28.9333394,31.6403715 28.9927745,31.7977757 C29.0517582,31.9550218 29.08125,32.1440332 29.08125,32.3649682 L29.08125,34.6625 L28.1837051,34.6625 L28.1837051,32.716915 C28.1837051,32.6023387 28.1793416,32.4936095 28.1704639,32.3918342 C28.1621881,32.290217 28.139016,32.2012425 28.1016998,32.1266494 C28.0634808,32.051108 28.0075065,31.9915282 27.9337769,31.9469619 C27.8600473,31.9033438 27.7596848,31.8802707 27.6334417,31.8802707 C27.5071986,31.8802707 27.40488,31.9065046 27.3269373,31.9572343 C27.249145,32.0082802 27.1879043,32.0741812 27.1436666,32.155886 C27.0994288,32.2379069 27.0697865,32.3308324 27.0547397,32.4348201 C27.0402947,32.538966 27.0330722,32.6445344 27.0330722,32.7502606 L27.0330722,34.6625 L26.1356778,34.6625 L26.1356778,32.7366694 C26.1356778,32.6350522 26.1334208,32.535015 26.1292077,32.4348201 C26.1249945,32.3355732 26.1067878,32.2434382 26.075039,32.1592048 C26.0437415,32.0756035 25.9907766,32.0082802 25.9177994,31.9572343 C25.8436184,31.9065046 25.7349801,31.8802707 25.591734,31.8802707 C25.5497533,31.8802707 25.493779,31.8907011 25.4241121,31.9102975 C25.355047,31.9302102 25.2873362,31.9676648 25.2218823,32.0232934 C25.1568799,32.0789223 25.1009056,32.1584146 25.0542604,32.2624024 C25.0080666,32.3665485 24.9850449,32.5024596 24.9850449,32.6707684 L24.9850449,34.6625 L24.0875,34.6625 L24.0875,31.2296353 L24.934337,31.2296353" id="Fill-8" fill="#FFFFFF"></path>
                                    <path d="M30.7775332,33.7752719 C30.9108378,33.9085645 31.10319,33.9759819 31.3539932,33.9759819 C31.5330746,33.9759819 31.6874035,33.9293914 31.8171294,33.8363643 C31.9468553,33.7433372 32.0260326,33.6449106 32.0552584,33.5417016 L32.8380866,33.5417016 C32.7129832,33.9434303 32.5206313,34.2305336 32.2617758,34.4034745 C32.0030696,34.5764154 31.6897894,34.6625 31.3225311,34.6625 C31.0675525,34.6625 30.8377737,34.6205375 30.6331947,34.5359957 C30.4284662,34.4522249 30.2550512,34.3320456 30.1132475,34.1768464 C29.9711454,34.0210299 29.8616985,33.8355929 29.7844596,33.6193012 C29.7070714,33.4028551 29.66875,33.1655823 29.66875,32.9065565 C29.66875,32.6560162 29.7081151,32.4226001 29.7875907,32.2063082 C29.8666191,31.9904792 29.9799429,31.8036539 30.1259216,31.6462947 C30.2721989,31.4878556 30.4462105,31.3639739 30.6491494,31.2731065 C30.8513428,31.1823935 31.0757535,31.1375 31.3225311,31.1375 C31.5976391,31.1375 31.8378558,31.1924216 32.0427329,31.3018014 C32.2474614,31.4127244 32.4153595,31.5608269 32.5470235,31.746264 C32.6785389,31.9323182 32.7729255,32.144136 32.8318241,32.3814091 C32.8901262,32.6186818 32.9111507,32.8678338 32.8944505,33.1267051 L30.5581921,33.1267051 C30.5705684,33.4246078 30.6436322,33.6408995 30.7775332,33.7752719 L30.7775332,33.7752719 L30.7775332,33.7752719 Z M31.7826849,32.012232 C31.675922,31.8912813 31.5142867,31.8308061 31.2973314,31.8308061 C31.1553785,31.8308061 31.0371341,31.8556441 30.9430454,31.905166 C30.8494044,31.9549963 30.7744018,32.0160889 30.7178893,32.0898316 C30.6612273,32.1634201 30.621564,32.2410198 30.5986009,32.3232477 C30.5757871,32.4054757 30.5622182,32.4782928 30.5581921,32.5435505 L32.004561,32.5435505 C31.9634063,32.3101344 31.8891496,32.1333369 31.7826849,32.012232 L31.7826849,32.012232 L31.7826849,32.012232 Z" id="Fill-9" fill="#FFFFFF"></path>
                                    <path d="M8.90208317,35.8375 C9.11915952,35.8375 9.31708207,35.8572412 9.49585083,35.8965673 C9.67477161,35.9368333 9.82800197,36.0013843 9.95554194,36.0911602 C10.0830819,36.1810929 10.1821952,36.3006374 10.2524258,36.4496374 C10.3228084,36.5992643 10.3579237,36.7836732 10.3579237,37.002551 C10.3579237,37.2397603 10.3059348,37.4373301 10.201349,37.5949472 C10.0973712,37.7531909 9.94292473,37.8822929 9.73846557,37.9831931 C10.0192359,38.0667021 10.2291676,38.2131949 10.3675006,38.4212621 C10.5058335,38.6299562 10.575,38.8811096 10.575,39.1748792 C10.575,39.4120882 10.5306118,39.6167086 10.4409234,39.7901501 C10.3518431,39.9632784 10.2309918,40.1052278 10.0801936,40.2147451 C9.92924347,40.324889 9.75655528,40.4062046 9.56319314,40.4580647 C9.36907094,40.5108648 9.16993227,40.5375 8.96562512,40.5375 L6.75625,40.5375 L6.75625,35.8375 L8.90208317,35.8375 L8.90208317,35.8375 Z M8.77408716,37.7398735 C8.95331197,37.7398735 9.10015774,37.6966305 9.21462448,37.6082647 C9.33000328,37.5208388 9.38731264,37.3782628 9.38731264,37.180693 C9.38731264,37.0710188 9.36815885,36.9812429 9.33000328,36.9112082 C9.29139167,36.8403901 9.24016287,36.7858666 9.17646888,36.7465405 C9.11262291,36.7062747 9.03920004,36.6796395 8.95635225,36.6638152 C8.87304846,36.6489306 8.78670434,36.6409403 8.69716796,36.6409403 L7.758784,36.6409403 L7.758784,37.7398735 L8.77408716,37.7398735 L8.77408716,37.7398735 Z M8.83170056,39.7342165 C8.92959774,39.7342165 9.02323851,39.724816 9.11262291,39.7050745 C9.20200727,39.6845499 9.28075066,39.6522744 9.34870103,39.6057412 C9.41710744,39.5601482 9.47152857,39.4971641 9.51196434,39.4183554 C9.55240014,39.3395467 9.57231401,39.2386468 9.57231401,39.115812 C9.57231401,38.8748424 9.50649184,38.7023409 9.37439143,38.5990908 C9.24213904,38.4959971 9.06793072,38.4439805 8.85085438,38.4439805 L7.758784,38.4439805 L7.758784,39.7342165 L8.83170056,39.7342165 L8.83170056,39.7342165 Z" id="Fill-10" fill="#FFFFFF"></path>
                                    <path d="M10.9937522,38.0530483 C11.0771916,37.835252 11.1959202,37.6490762 11.3496243,37.4956007 C11.5034853,37.3421251 11.688087,37.2233552 11.9032728,37.1388281 C12.1184586,37.055072 12.3598367,37.0125 12.6278779,37.0125 C12.8959191,37.0125 13.1383952,37.055072 13.3556198,37.1388281 C13.5731582,37.2233552 13.7585442,37.3421251 13.912562,37.4956007 C14.0661093,37.6490762 14.1851515,37.835252 14.2687478,38.0530483 C14.3518735,38.270999 14.39375,38.5144003 14.39375,38.7820183 C14.39375,39.0494821 14.3518735,39.291495 14.2687478,39.5079033 C14.1851515,39.723386 14.0661093,39.9086362 13.912562,40.0614946 C13.7585442,40.2151244 13.5731582,40.3328147 13.3556198,40.4144111 C13.1383952,40.4964705 12.8959191,40.5375 12.6278779,40.5375 C12.3598367,40.5375 12.1184586,40.4964705 11.9032728,40.4144111 C11.688087,40.3328147 11.5034853,40.2151244 11.3496243,40.0614946 C11.1959202,39.9086362 11.0771916,39.723386 10.9937522,39.5079033 C10.9106265,39.291495 10.86875,39.0494821 10.86875,38.7820183 C10.86875,38.5144003 10.9106265,38.270999 10.9937522,38.0530483 L10.9937522,38.0530483 L10.9937522,38.0530483 Z M11.8436733,39.1736505 C11.8701794,39.301521 11.9150359,39.4155095 11.9788701,39.5171579 C12.0423907,39.6186523 12.1270848,39.7000945 12.2323251,39.7605594 C12.3380359,39.8211783 12.4697823,39.8512565 12.6278779,39.8512565 C12.7859736,39.8512565 12.9188179,39.8211783 13.0264107,39.7605594 C13.1341605,39.7000945 13.2196388,39.6186523 13.283473,39.5171579 C13.3469936,39.4155095 13.3918501,39.301521 13.4188267,39.1736505 C13.4447055,39.0463971 13.4581938,38.916213 13.4581938,38.7820183 C13.4581938,38.6478236 13.4447055,38.516097 13.4188267,38.3865297 C13.3918501,38.2569625 13.3469936,38.1422029 13.283473,38.0430223 C13.2196388,37.9436875 13.1341605,37.8630164 13.0264107,37.8002379 C12.9188179,37.7374594 12.7859736,37.7064559 12.6278779,37.7064559 C12.4697823,37.7064559 12.3380359,37.7374594 12.2323251,37.8002379 C12.1270848,37.8630164 12.0423907,37.9436875 11.9788701,38.0430223 C11.9150359,38.1422029 11.8701794,38.2569625 11.8436733,38.3865297 C11.817324,38.516097 11.8043062,38.6478236 11.8043062,38.7820183 C11.8043062,38.916213 11.817324,39.0463971 11.8436733,39.1736505 L11.8436733,39.1736505 L11.8436733,39.1736505 Z" id="Fill-11" fill="#FFFFFF"></path>
                                    <path d="M15.0841007,38.1337194 C15.0970714,37.9180825 15.1500227,37.7382308 15.2444805,37.5963237 C15.3380227,37.4536455 15.4579643,37.3388859 15.6033896,37.2520452 C15.7483572,37.1659756 15.911789,37.1047396 16.0935325,37.068183 C16.2754286,37.0310095 16.4580877,37.0125 16.6421201,37.0125 C16.8086039,37.0125 16.9773766,37.0248398 17.1484383,37.0489021 C17.3190422,37.0721935 17.4753019,37.1186216 17.6164545,37.1877242 C17.7573019,37.2566726 17.872513,37.3529225 17.9623928,37.4761656 C18.0521201,37.5995629 18.0969838,37.7622933 18.0969838,37.9654362 L18.0969838,39.7085783 C18.0969838,39.8598942 18.105987,40.0039607 18.1227727,40.1429371 C18.139711,40.2808336 18.1696201,40.3847958 18.2125,40.4537439 L17.2895909,40.4537439 C17.2723474,40.401917 17.2581558,40.3491648 17.247474,40.2948698 C17.2366396,40.2407294 17.2294675,40.1855091 17.2251948,40.1296716 C17.0797695,40.2808336 16.9087078,40.3863383 16.7123149,40.4475743 C16.5156169,40.5074218 16.3149513,40.5375 16.1097078,40.5375 C15.9517695,40.5375 15.804513,40.5182191 15.6674805,40.4795032 C15.5306007,40.440633 15.4109643,40.3801684 15.3085714,40.298109 C15.206026,40.2165126 15.1254545,40.1127046 15.0679253,39.9869934 C15.0105487,39.8622078 14.98125,39.7125886 14.98125,39.539678 C14.98125,39.3496461 15.0146688,39.1930856 15.0808961,39.0696882 C15.1469708,38.9472165 15.2325779,38.8486528 15.3371072,38.7750773 C15.4419416,38.7021186 15.5615779,38.6470525 15.6963214,38.6097248 C15.8309123,38.5733224 15.9662662,38.5446324 16.1036039,38.5222669 C16.2401786,38.5012893 16.3747695,38.4833967 16.5070714,38.4710569 C16.6398312,38.4577917 16.7573312,38.4385108 16.8600292,38.4121347 C16.9624221,38.3865297 17.0434513,38.3485849 17.1031169,38.2989176 C17.1630877,38.2492501 17.191013,38.177217 17.1867402,38.0818925 C17.1867402,37.9825577 17.1707175,37.9042002 17.1385195,37.8451238 C17.1066266,37.7869728 17.0640519,37.7420869 17.0103377,37.7095408 C16.9569286,37.6769948 16.8952792,37.6552461 16.8246266,37.6444488 C16.7541266,37.6334972 16.6781331,37.6280987 16.5969513,37.6280987 C16.4173442,37.6280987 16.2763442,37.6677399 16.1737987,37.7451718 C16.0714058,37.822758 16.0115877,37.9523252 15.9943442,38.1337194 L15.0841007,38.1337194 L15.0841007,38.1337194 Z M17.1867402,38.8137929 C17.1484383,38.8486528 17.1000649,38.8758003 17.0425357,38.8952354 C16.9850065,38.9146705 16.9228993,38.9308664 16.8565195,38.9439773 C16.7902922,38.9564711 16.7208604,38.9674227 16.648224,38.975752 C16.5752825,38.9851611 16.5029513,38.9951871 16.4303149,39.008298 C16.3621039,39.0215635 16.2946558,39.0386847 16.2285812,39.0602794 C16.1618961,39.0821823 16.1043669,39.1114892 16.0552305,39.1480458 C16.0062467,39.1844478 15.9662662,39.2310304 15.9368149,39.287639 C15.9069058,39.3433219 15.8917987,39.4147381 15.8917987,39.5008078 C15.8917987,39.5830214 15.9069058,39.6519698 15.9368149,39.7085783 C15.9662662,39.7645697 16.0070098,39.8086842 16.0584351,39.8412302 C16.1097078,39.8739308 16.169526,39.8962963 16.2378896,39.9094073 C16.3061007,39.9219013 16.3767533,39.9288424 16.4495422,39.9288424 C16.6291493,39.9288424 16.768013,39.8986102 16.8661331,39.8381453 C16.9642533,39.7776807 17.0371948,39.7054934 17.0838896,39.6209659 C17.1311948,39.5364388 17.1598831,39.4511405 17.1707175,39.3650709 C17.1813993,39.2782299 17.1867402,39.2092815 17.1867402,39.1573003 L17.1867402,38.8137929 L17.1867402,38.8137929 Z" id="Fill-12" fill="#FFFFFF"></path>
                                    <path d="M19.634024,37.1054046 L19.634024,37.7432542 L19.6457833,37.7432542 C19.6872346,37.6367616 19.74265,37.5383269 19.8127645,37.4477926 C19.882585,37.3570999 19.9628418,37.2792056 20.0538289,37.214899 C20.1439341,37.1513826 20.2406538,37.1012965 20.3438411,37.0655883 C20.4468815,37.0306702 20.5540376,37.0125 20.6648684,37.0125 C20.7224886,37.0125 20.7859886,37.02356 20.85625,37.0458383 L20.85625,37.9219532 C20.8152397,37.9131052 20.7661448,37.9052051 20.7082306,37.898885 C20.6507573,37.892565 20.5950479,37.8894048 20.5413964,37.8894048 C20.3811767,37.8894048 20.2450635,37.9178451 20.1339387,37.9751995 C20.0228139,38.0323959 19.9332967,38.1117122 19.8652401,38.2110949 C19.7971835,38.3103192 19.7488236,38.426292 19.7200135,38.5590127 C19.6913504,38.6925235 19.6769453,38.8361464 19.6769453,38.9909873 L19.6769453,40.5375 L18.8,40.5375 L18.8,37.1054046 L19.634024,37.1054046" id="Fill-13" fill="#FFFFFF"></path>
                                    <path d="M23.2460149,40.0270418 C23.1434982,40.2080183 23.0096855,40.3386721 22.8434066,40.4185418 C22.6780052,40.4981037 22.490521,40.5375 22.2813928,40.5375 C22.0438934,40.5375 21.835204,40.4888703 21.655032,40.3920726 C21.4745675,40.2954286 21.3259841,40.1640054 21.209428,39.9984182 C21.0930182,39.8319075 21.0046871,39.6416976 20.945166,39.4259418 C20.8856449,39.2108013 20.85625,38.9864277 20.85625,38.7535897 C20.85625,38.5292161 20.8856449,38.3133064 20.945166,38.1037061 C21.0046871,37.8948754 21.0930182,37.7106671 21.209428,37.5512357 C21.3259841,37.391958 21.4723739,37.2634586 21.6487435,37.1666609 C21.8248207,37.0692475 22.0297078,37.0206178 22.2632587,37.0206178 C22.4516203,37.0206178 22.6306223,37.0630917 22.8008497,37.146655 C22.9706384,37.2309874 23.1047437,37.35487 23.2030193,37.5187646 L23.21545,37.5187646 L23.21545,35.8375 L24.0875,35.8375 L24.0875,40.4539369 L23.2584456,40.4539369 L23.2584456,40.0270418 L23.2460149,40.0270418 L23.2460149,40.0270418 Z M23.2093078,38.3753246 C23.1845927,38.2482102 23.142767,38.1361772 23.0830997,38.0386099 C23.0240173,37.9419661 22.9470932,37.8637893 22.8530587,37.8026943 C22.7585854,37.7431382 22.6398356,37.7129757 22.4963708,37.7129757 C22.3531984,37.7129757 22.2325475,37.7431382 22.1339794,37.8026943 C22.03585,37.8637893 21.9568785,37.9435051 21.8976499,38.042611 C21.8379826,38.1415634 21.794987,38.2545197 21.7686632,38.3822498 C21.7417544,38.5090564 21.7288849,38.6414031 21.7288849,38.7791357 C21.7288849,38.9090202 21.7429243,39.038289 21.7714418,39.1674042 C21.8002518,39.296673 21.8466109,39.4119375 21.9096419,39.5131982 C21.973404,39.6146127 22.0531068,39.6966368 22.1494812,39.7585011 C22.2457094,39.8211351 22.3610956,39.8528369 22.4963708,39.8528369 C22.6398356,39.8528369 22.7597553,39.822828 22.8559835,39.7623487 C22.9522118,39.702023 23.0291358,39.6207685 23.0864633,39.5195079 C23.1434982,39.4180934 23.1845927,39.3028285 23.2093078,39.1735597 C23.2338767,39.0444448 23.2460149,38.9105592 23.2460149,38.7729802 C23.2460149,38.6350933 23.2338767,38.5029006 23.2093078,38.3753246 L23.2093078,38.3753246 L23.2093078,38.3753246 Z" id="Fill-14" fill="#FFFFFF"></path>
                                </g>
                            </g>
                        </g>
                    </g>
                </g>
            </g>
            <g id="Apple" sketch:type="MSLayerGroup" transform="translate(219.000000, 218.000000)">
                <g id="BackgroundInner-Copy-5" fill="#373849" sketch:type="MSShapeGroup">
                    <g id="shape2">
                        <path d="M79.0485201,56.4648363 C79.6249471,55.0534319 80.1146934,53.6030623 80.522093,52.1093981 C81.4755814,48.6068638 81.9523256,44.8965153 81.9523256,40.9826822 C81.9523256,29.6799014 77.9520085,20.0324182 69.9513742,12.0402323 C61.95074,4.04804646 52.2901691,0.0519535375 40.9739958,0.0519535375 C29.6578224,0.0519535375 20.0015856,4.04804646 12.0009514,12.0402323 C4.00031712,20.0324182 0,29.6784583 0,40.9826822 C0,52.286906 4.00031712,61.9372756 12.0009514,69.9294615 C19.1217759,77.0470961 27.560148,80.9955649 37.3073996,81.7705385 C38.5079281,81.8701162 39.7301268,81.9177402 40.9739958,81.9177402 C41.6241015,81.9177402 42.2698732,81.9047518 42.8809725,81.8787751 C53.3953488,81.4458289 62.410148,77.4627244 69.9513742,69.9294615 C74.0167019,65.8684266 77.0505285,61.3787751 79.0485201,56.4648363 L79.0485201,56.4648363 Z" id="path1"></path>
                    </g>
                </g>
                <path d="M81.5005865,47.3878881 C81.2658802,49.0013492 80.9397158,50.5753071 80.522093,52.1093981 C80.1146934,53.6030623 79.6249471,55.0534319 79.0485201,56.4648363 C77.0505285,61.3787751 74.0167019,65.8684266 69.9513742,69.9294615 C64.7709814,75.1043839 58.8952232,78.6040196 52.31567,80.4283684 L29.5056467,57.6183451 C22.8142503,50.9269487 30.2215578,34.2619346 30.2215578,34.2619346 L33.6463649,37.6867417 C33.6463649,37.6867417 46.3801154,12.267417 49.2980952,15.1853968 L81.5005865,47.3878881 Z" id="path1-copy-5" fill-opacity="0.2" fill="#000000" sketch:type="MSShapeGroup"></path>
                <g id="download.php" transform="translate(22.000000, 15.000000)" fill="#FFFFFF" sketch:type="MSShapeGroup">
                    <g id="Group">
                        <path d="M28.2454829,10.5077922 C24.2679128,10.5077922 22.5869159,12.4363636 19.8168224,12.4363636 C16.9757009,12.4363636 14.8093458,10.5194805 11.364486,10.5194805 C7.99065421,10.5194805 4.39190031,12.6116883 2.10716511,16.1766234 C-1.10093458,21.2025974 -0.556386293,30.6701299 4.64049844,38.7350649 C6.49906542,41.6220779 8.98504673,44.8597403 12.2404984,44.8948052 L12.2996885,44.8948052 C15.128972,44.8948052 15.9694704,43.012987 19.8641745,42.9896104 L19.9233645,42.9896104 C23.7588785,42.9896104 24.5283489,44.8831169 27.3457944,44.8831169 L27.4049844,44.8831169 C30.6604361,44.8480519 33.2766355,41.2597403 35.1352025,38.3844156 C36.4728972,36.3155844 36.9700935,35.2753247 38,32.9376623 C30.482866,30.038961 29.2753894,19.2155844 36.7096573,15.0662338 C34.4367601,12.1792208 31.2523364,10.5077922 28.2454829,10.5077922 L28.2454829,10.5077922 L28.2454829,10.5077922 Z" id="Shape"></path>
                        <path d="M27.3694704,0 C25.0018692,0.163636364 22.2436137,1.69480519 20.6218069,3.69350649 C19.1538941,5.50519481 17.9464174,8.19350649 18.4199377,10.8 L18.6093458,10.8 C21.1308411,10.8 23.7115265,9.25714286 25.2149533,7.28181818 C26.671028,5.4 27.7719626,2.73506494 27.3694704,0 L27.3694704,0 L27.3694704,0 Z" id="Shape"></path>
                    </g>
                </g>
            </g>
        </g>
    </g>
</svg>